<?xml version="1.0" encoding="utf-8"?>
<!-- Generator: Adobe Illustrator 18.0.0, SVG Export Plug-In . SVG Version: 6.00 Build 0)  -->
<!DOCTYPE svg PUBLIC "-//W3C//DTD SVG 1.1//EN" "http://www.w3.org/Graphics/SVG/1.1/DTD/svg11.dtd">
<svg version="1.1" id="Layer_1" xmlns="http://www.w3.org/2000/svg" xmlns:xlink="http://www.w3.org/1999/xlink" x="0px" y="0px"
	 width="600px" height="600px" viewBox="0 0 1400 1400" enable-background="new 0 0 1400 1400" xml:space="preserve">
<g>
	<g>
		<g>
			<polygon fill="#77D9DC" points="1159.8,857.6 1105.5,889.2 1050.8,857.6 1105.1,826 			"/>
		</g>
		<g>
			<polygon fill="#4EAFAC" points="1159.8,857.6 1159.3,889.6 1104.9,921.2 1105.5,889.2 			"/>
		</g>
		<g>
			<polygon fill="#58BFBF" points="1105.5,889.2 1104.9,921.2 1050.2,889.6 1050.8,857.6 			"/>
		</g>
	</g>
	<g>
		<g>
			<polygon fill="#FA6B5C" points="411.9,771.7 357.6,803.3 302.9,771.7 357.3,740.1 			"/>
		</g>
		<g>
			<polygon fill="#D75D4C" points="411.9,771.7 411.4,866.1 357.1,897.7 357.6,803.3 			"/>
		</g>
		<g>
			<polygon fill="#BB5140" points="357.6,803.3 357.1,897.7 302.4,866.1 302.9,771.7 			"/>
		</g>
	</g>
	<g>
		<g>
			<polygon fill="#FEDB59" points="417.5,1080.4 336,1127.7 254.1,1080.4 335.5,1033.1 			"/>
		</g>
		<g>
			<polygon fill="#B89030" points="417.5,1080.4 416.7,1104.1 335.2,1151.4 336,1127.7 			"/>
		</g>
		<g>
			<polygon fill="#CBAF46" points="336,1127.7 335.2,1151.4 253.3,1104.1 254.1,1080.4 			"/>
		</g>
	</g>
	<g>
		<g>
			<g>
				<g enable-background="new    ">
					<g>
						<polygon fill="#F7F8F8" points="663.2,1109.9 573.3,1162.1 404,1064.4 493.9,1012.1 						"/>
					</g>
					<g>
						<polygon fill="#5678B5" points="663.2,1109.9 663.2,1120.1 573.3,1172.3 573.3,1162.1 						"/>
					</g>
					<g>
						<polygon fill="#91B9FF" points="573.3,1162.1 573.3,1172.3 404,1074.6 404,1064.4 						"/>
					</g>
				</g>
			</g>
			<g>
				<g>
					<polygon fill="#91B9FF" points="599.9,1093.5 596.4,1095.5 482.1,1029.5 485.7,1027.5 					"/>
				</g>
				<g enable-background="new    ">
					<g>
						<polygon fill="#91B9FF" points="546.3,1085.4 542.8,1087.4 462.4,1041 465.9,1039 						"/>
					</g>
					<g>
						<polygon fill="#91B9FF" points="607,1089.3 603.5,1091.4 489.2,1025.4 492.7,1023.4 						"/>
					</g>
					<g>
						<polygon fill="#91B9FF" points="539.3,1089.5 535.8,1091.5 455.4,1045.1 458.9,1043 						"/>
					</g>
					<g>
						<polygon fill="#91B9FF" points="592.8,1097.6 589.3,1099.6 475,1033.7 478.6,1031.6 						"/>
					</g>
				</g>
			</g>
		</g>
		<g>
			<g enable-background="new    ">
				<g>
					<polygon fill="#F7F8F8" points="724.4,253.2 724.5,315.5 499.9,445.3 499.7,383 					"/>
				</g>
				<g>
					<polygon fill="#FA6B5C" points="499.9,445.3 493.1,441.4 492.9,379.1 499.7,383 					"/>
				</g>
				<g>
					<polygon fill="#FA6B5C" points="499.7,383 492.9,379.1 717.6,249.2 724.4,253.2 					"/>
				</g>
			</g>
		</g>
		<g>
			<g>
				<polygon fill="#FA6B5C" points="706.6,297.8 706.6,303.2 517.7,412.2 517.7,406.8 				"/>
			</g>
			<g>
				<polygon fill="#FA6B5C" points="706.6,310.8 706.6,316.2 517.8,425.2 517.8,419.8 				"/>
			</g>
			<g>
				<polygon fill="#FA6B5C" points="706.5,275.4 706.5,284.8 517.7,393.8 517.7,384.4 				"/>
			</g>
		</g>
		<g>
			<g enable-background="new    ">
				<g>
					<polygon fill="#F7F8F8" points="724.4,161.5 724.5,223.8 499.9,353.7 499.7,291.4 					"/>
				</g>
				<g>
					<polygon fill="#FA6B5C" points="499.9,353.7 493.1,349.7 492.9,287.4 499.7,291.4 					"/>
				</g>
				<g>
					<polygon fill="#FA6B5C" points="499.7,291.4 492.9,287.4 717.6,157.6 724.4,161.5 					"/>
				</g>
			</g>
		</g>
		<g>
			<g>
				<polygon fill="#FA6B5C" points="706.6,206.1 706.6,211.5 517.7,320.5 517.7,315.1 				"/>
			</g>
			<g>
				<polygon fill="#FA6B5C" points="706.6,219.2 706.6,224.6 517.8,333.6 517.8,328.2 				"/>
			</g>
			<g>
				<polygon fill="#FA6B5C" points="706.5,183.7 706.5,193.1 517.7,302.1 517.7,292.8 				"/>
			</g>
		</g>
		<path fill="#325863" d="M431.7,597.6c0,0-6.8-0.7-11.8-2.5c-5-1.8-10.3-1.4-11.4,0c-1.1,1.4,5,11.1,14.3,13.2
			c9.3,2.1,9.3,2.1,9.3,2.1v2.9c0,0,4,1.1,8.4,0s5.8-5.4,5.8-5.4l1.2-5L431.7,597.6z"/>
		<g>
			<polygon fill="#BB5140" points="656.9,542 656.1,827.2 571.7,778.5 572.5,493.2 			"/>
		</g>
		<g>
			<polygon fill="#D75D4C" points="749.9,487.9 749.1,773.2 656.1,827.2 656.9,542 			"/>
		</g>
		<g>
			<polygon fill="#BB5140" points="861.9,552.6 861.1,837.8 749.1,773.2 749.9,487.9 			"/>
		</g>
		<polygon fill="#D75D4C" points="937.2,606.6 853.3,655.4 852.5,940.6 936.4,891.9 1029.4,837.8 1030.2,552.6 		"/>
		<polygon fill="#B89030" points="609.7,679.7 608.9,965 785.8,862.2 786.6,577 		"/>
		<g>
			<polygon fill="#FA6B5C" points="1030.2,552.6 937.2,606.6 853.3,655.4 768.9,606.6 861.9,552.6 749.9,487.9 656.9,542 
				572.5,493.2 656.4,444.5 749.4,390.5 843,444.5 936.6,498.6 			"/>
		</g>
		<g>
			<polygon fill="#ED1C24" points="853.3,655.4 852.5,940.6 768.1,891.9 768.9,606.6 			"/>
		</g>
		<g>
			<polygon fill="#FEDB59" points="786.6,577 609.7,679.7 525.3,631 431.7,577 515.6,528.2 618.4,587.6 711.4,533.5 			"/>
		</g>
		<polygon fill="#CBAF46" points="525.3,631 431.7,577 430.9,862.2 524.5,916.2 608.9,965 609.7,679.7 		"/>
		<g>
			<polygon fill="#91B9FF" points="853.3,655.4 769.5,704.1 685.1,655.4 768.9,606.6 			"/>
		</g>
		<g>
			<polygon fill="#5678B5" points="853.3,655.4 852.5,940.6 768.7,989.3 769.5,704.1 			"/>
		</g>
		<g>
			<polygon fill="#668ED6" points="769.5,704.1 768.7,989.3 684.3,940.6 685.1,655.4 			"/>
		</g>
		<g>
			<path fill="#F0C7AD" d="M501,808.7c0,0,3.2-4.3,4.9-7.7s2.7-5.1,3.4-4.8c0.7,0.3,0.7,2.4,0.7,2.4s2.2-1.9,3.4-3.3
				c1.2-1.4,2.4-2.8,2.4-2.8s1.9-0.5,3.9,3.9c2,4.4,1,9.1,0,10c-1,0.9-10.2,8.7-15.5,8.9C498.9,815.5,501,808.7,501,808.7z"/>
			<path fill="#F0C7AD" d="M475.7,798.5c0,0,4.6-2.7,8.2-4c3.6-1.3,5.4-2.1,5.1-2.8s-2.3-1-2.3-1s2.2-2,3.7-3s3.1-2,3.1-2
				s0.7-1.8-3.4-4.4c-4.1-2.6-8.9-2.1-9.9-1.2s-9.9,9.1-10.7,14.3C468.7,799.6,475.7,798.5,475.7,798.5z"/>
			<path fill="#7A4B20" d="M437.9,976c0,0,2.2,0.7,6.8-1c4.6-1.7,6.8-2.7,9.7-2.2c2.9,0.5,1.2,3.6,0,5.1c0,0-8,8.7-19.7,10.9
				c0,0,0.5,1-0.9,2.4c-1.4,1.4-14.1,3.7-14.8-2.6C420.1,988.8,436.7,981,437.9,976z"/>
			<path fill="#7A4B20" d="M378.9,964.5c0,0,2.6-1.9,4.6-1.7c2,0.2,1.4,3.9,1.4,7.1s-4.9,9-7.7,11.1s-6.1,7.3-6.1,7.3
				s-5.4,6.8-10.5,2.9C360.5,991.2,378.5,971.8,378.9,964.5z"/>
			<path fill="#4B4B4B" d="M440.1,926.4c-8.5-10.7-20.7-20.2-20.7-20.2l-4.3-1.2c0,0-12.7-1.8-16.5,2.4c-3.8-6.4-11.9-13.1-17.8-8.8
				c0,0-6.8,26.7-9.9,34.7s-11.1,39.5-11.7,41.8c-0.7,2.4-2.4,8.3-1.9,11.6s3.2,4.6,3.2,4.6s4.4-0.2,9.2-5.4
				c4.8-5.3,9.2-13.9,9.2-13.9s2.6-12.8,4.8-17.9c2-4.6,13.4-28,16.3-37.2c6.9,11.3,25.3,28.7,25.3,28.7c-5.1,17-6.3,43.2-6.3,43.2
				c13.6,3.1,20.9-7.8,20.9-7.8s1-13.6,2.7-20.1c1.7-6.5,5.6-19.7,5.6-19.7S448.6,937.1,440.1,926.4z"/>
			<path fill="#6E6E6E" d="M454.2,809.7l23.2-11l-5.8-11.2l-18.9,7.8C452.7,795.2,445.3,802.2,454.2,809.7z"/>
			<path fill="#4B4B4B" d="M429.2,803.9c0,0-4.3-0.1-8.5,2.5s-24.3,17.9-33.7,51.9c-9.4,34-6.3,40.1-6.3,40.1s7,6.1,13.3,11.1
				c6.3,4.9,8.8,5.6,8.8,5.6s11.1-4.4,16.5-9c0,0-0.7-22.6,1.9-29.4c2.6-6.8,9.9-16.5,15-29.1c5.1-12.6,3.7-23.6,3.7-23.6
				S429.5,811.6,429.2,803.9z"/>
			<path fill="#6E6E6E" d="M436.7,828.9c0,0-5.4,0.2-8,6.8c-2.6,6.6,1,10.9,5.4,11.9c4.4,1,27-5.3,45.7-14.3
				c18.7-9,27.4-17.3,27.4-17.3l-5.6-10.9C501.6,805.1,463.2,826.6,436.7,828.9z"/>
			<path fill="#F0C7AD" d="M459.1,791.6v16.5c0,0-1.4,9.4-12.5,9.1l-6.7,6.8c0,0-9-4.7-9.8-12.5c-0.8-7.8,10.3-19.4,10.3-19.4
				S455,785.1,459.1,791.6z"/>
			<path fill="#4C3829" d="M430.1,811.6c-3.4-3.8-4.4-11.5-4-16.8s3.7-14.4,13.3-16.8c9.6-2.4,15.5,3.4,17.2,5.7
				c1.7,2.4,5.3,3,5.3,3c0.3,1.1,0.3,4.2-2.9,4.8c-3.2,0.6-7.8,4-7.8,4s-1.6,1.4-2.8,2.7c0,0-1.7,2.4-1.3,4.9
				C447.1,803.1,441.2,812,430.1,811.6z"/>
		</g>
		<g>
			<polygon fill="#EDA76A" points="1074.1,914.5 1026,941.9 1026,932.1 1075,904.7 			"/>
			<polygon fill="#EDA76A" points="1031.9,783.9 983.8,811.3 983.8,801.6 1032.8,774.1 			"/>
			<polygon fill="#EDA76A" points="1047.5,827.4 999.4,854.8 999.4,845.1 1048.4,817.6 			"/>
			<polygon fill="#EDA76A" points="1086.9,950.5 1038.9,977.9 1038.9,968.1 1087.9,940.6 			"/>
			<polygon fill="#EDA76A" points="997.5,665.4 949.4,692.8 949.4,683.1 998.4,655.6 			"/>
			<polygon fill="#EDA76A" points="1009.4,705.2 961.4,732.6 961.4,722.9 1010.4,695.4 			"/>
			<polygon fill="#EDA76A" points="1063.5,873.3 1015.4,900.8 1015.4,891 1064.4,863.5 			"/>
			<g>
				<polygon fill="#F7B07C" points="982.9,582.5 976.5,578 967.5,583.3 973.9,587.7 				"/>
				<polygon fill="#EDA76A" points="967.5,583.3 1088.1,968.9 1094.2,971 989.1,620.6 973.9,587.7 				"/>
				<polygon fill="#AF7C44" points="1094.2,971 973.9,587.7 982.9,582.5 1103.2,965.8 				"/>
			</g>
			<polygon fill="#AF7C44" points="1004.7,663.7 949.4,695.3 949.4,685.6 998.4,658.1 			"/>
			<polygon fill="#AF7C44" points="1016.7,703.5 961.4,735.1 961.4,725.4 1010.4,697.9 			"/>
			<polygon fill="#EDA76A" points="1019.8,742.4 971.8,769.9 971.8,760.1 1020.8,732.6 			"/>
			<polygon fill="#AF7C44" points="1027.1,740.8 971.8,772.4 971.8,762.6 1020.8,735.1 			"/>
			<polygon fill="#AF7C44" points="1039.1,782.3 983.8,813.9 983.8,804.1 1032.8,776.6 			"/>
			<polygon fill="#AF7C44" points="1054.8,825.8 999.4,857.4 999.4,847.6 1048.4,820.1 			"/>
			<polygon fill="#AF7C44" points="1070.8,871.7 1015.4,903.3 1015.4,893.5 1064.4,866 			"/>
			<polygon fill="#AF7C44" points="1081.3,912.8 1026,944.4 1026,934.7 1075,907.2 			"/>
			<polygon fill="#AF7C44" points="1094.2,948.8 1038.9,980.4 1038.9,970.7 1087.9,943.2 			"/>
			<g>
				<polygon fill="#F7B07C" points="929.9,611.7 923.5,607.2 914.5,612.5 920.9,616.9 				"/>
				<polygon fill="#EDA76A" points="914.5,612.5 1035,998.1 1041.2,1000.3 936.1,649.8 920.9,616.9 				"/>
				<polygon fill="#AF7C44" points="1041.2,1000.3 920.9,616.9 929.9,611.7 1050.2,995.1 				"/>
			</g>
			<path fill="#DE600C" d="M1042.4,863.8c0,0,5.3,2.3,6.3,5.3s0.5,6.8-1.5,8.3s-7.3,2-11.3,4.5s-7.5,7.3-10.8,8
				c-3.3,0.8-9.8-1.8-8.3-5c1.5-3.3,10-10,10-10L1042.4,863.8z"/>
			<path fill="#DE600C" d="M1073.3,920c0,0,0.3,3.5,0,7.5c-0.3,4-2.8,5-8,3.8c-5.3-1.3-5-6.5-10.8-8.8c-5.8-2.3-9-0.5-10.8-2.5
				c-1.8-2,0.8-4.5,5.5-6.3s13.5,0,13.5,0L1073.3,920z"/>
			<path fill="#0F5B78" d="M1011,796.1c11.5,0,34.6,4,34.6,4l16.8,10.5l21.1-3.5c0,0-1.3,15.6-5,27.3c-3.8,11.8-2.5,30.4-2,35.1
				c0.5,4.8,0.3,37.9-3.3,50.4c0,0-6.3,3-11,0s-5.5-5-5.5-5s0.8-28.4,0-36.9c-0.6-6.6-4.7-27.9-5.9-42.6
				c-12.6,0.2-25.3-9.6-25.3-9.6s11.1,22.3,13.5,26.8c2.3,4.5,5.4,11.5,5.4,11.5s-9,9.6-18.8,10.9c0,0-10.8-24.6-16.8-35.4
				c-6-10.8-14.3-25.6-14.1-32.6C995,800.1,999.5,796.1,1011,796.1z"/>
			<path fill="#F0C6AD" d="M1031.1,731.8l-2.4-2.5c0,0-8.2-0.7-11.1,0c-2.9,0.7-11.8,3.4-12,7.9s2.4,2.4,6.9,0s5.5-0.7,5.9,0
				c0.3,0.7,2.1,4.3,0,6.1c-2.1,1.8-2.8,1.1-3.7,3.6s2.7,0.8,6.2-2.7c3.6-3.4,7.8-6.3,7.8-6.3L1031.1,731.8z"/>
			<path fill="#3CDE7A" d="M1048,724.3c0,0-16.6,2.3-19.6,4.5v9.8c0,0,15.4,0.8,19.6,3c4.2,2.3,7.2-8.7,7.2-8.7L1048,724.3z"/>
			<path fill="#F0C6AD" d="M1049.7,702.4c0,0-7.2,4.1-8.7,7.2c-1.5,3,0,13.2,2.3,14.7c2.3,1.5,1.7,7.9,1.8,12.4c0,0,7.7,2.3,13.3,0
				c5.7-2.3,6.8-9.8,6.8-9.8L1049.7,702.4z"/>
			<path fill="#3CDE7A" d="M1068.3,723.3c0,0,9,2,13.8,6.5c4.8,4.5,3.8,19.3,1.5,24.6c-2.3,5.3-1.3,47.9,0,52.7c0,0-4,10-12.8,13.3
				c-8.8,3.3-18.8,4-26.3,0s-8.3-10-8.3-10s1.8-17.1,1-27.9c-0.8-10.8-8.3-30.6,0.8-39.4c9-8.8,15.8-11.5,15.8-11.5
				S1063.7,731,1068.3,723.3z"/>
			<path fill="#F0C6AD" d="M980.2,758.7l-1.5-5.5c0,0-1.5-5-4-6.8c-2.5-1.8-1.5,0.4-4.8,2.4c-3.3,1.9-8.3,2.9-11.5,1.4s-4.3,0-2.8,4
				c1.5,4,2.8,14.1,23.1,9L980.2,758.7z"/>
			<path fill="#3CDE7A" d="M1036.9,750.4c0,0-2-3.8-9.3,0c-7.3,3.8-13,15.1-24.6,13.3c-11.5-1.8-24.3-10.5-24.3-10.5
				s-7.3,5.8-2.3,12.5c0,0,10,14.6,29.4,15.8C1025.1,782.8,1045.9,763.2,1036.9,750.4z"/>
			<path fill="#4C3829" d="M1048.2,708.7c0,0-1.6-6.5,4.6-10c6.2-3.5,12.7,5.3,16.2,8c3.5,2.8,5.3,12.8,2.8,17.3
				c-2.5,4.5-5.3,7-11.3,7.5c-6,0.5-9.5-6.3-9.3-10.3C1051.4,717.3,1048.2,708.7,1048.2,708.7z"/>
		</g>
		<g>
			<path fill="#4C3829" d="M479.8,454.4l-3-4.6c0,0-2.3,3.7-4.6-2c-2.3-5.6,1.9-7.9,4.6-11c2.7-3,17.5-12.2,24-8.8
				c6.5,3.4,10.3,10.7,9.9,16.4c-0.4,5.7-1.5,17.1-1.5,17.1l-7.6,5.7l-5.7-1.5L479.8,454.4z"/>
			<polygon fill="#4B4B4B" points="426.8,526.5 465.5,537.8 484.4,519.5 480.2,509.2 484.4,503.9 465.5,499.7 			"/>
			<polygon fill="#4B4B4B" points="465.5,461.6 426.8,488.6 426.8,526.5 465.5,499.7 			"/>
			<polygon fill="#4382E9" points="461.9,467.7 430.5,489.7 430.5,520.4 461.9,498.6 			"/>
			<path fill="#325863" d="M490.5,528.3c0,0-26.7,10.3-37,6.9c0,0-9.1,0-14.1,8.4s-7.2,24.8-7.2,30.1c0,0.7,0,1.8-0.1,3.1l21.5-12.5
				c0.2-4.7,1.5-4.7,1.5-4.7s22.5,16.9,39.8,21.8l5.9-49.2L490.5,528.3z"/>
			<path fill="#F0C7AD" d="M476.8,449.8c0,0,3,16,7.2,21.7s13.3,1.5,13.3,1.5v6.1l11.8-4.6v-13c0,0-9.1,3-12.6-1.5
				c-3.4-4.6-5.3-14.5-8.4-11.8c-3,2.7-2.3,5-2.3,5S479.8,454.4,476.8,449.8z"/>
			<path fill="#F0C7AD" d="M480.2,506.5l-5-2.7c0,0-7.2-2.3-9.7-1.5c-2.5,0.8-8.6,2.3-5.9,4.2c2.7,1.9,3.8,0,5.9,0s1.4,4.2,4.1,5.1
				s4.9,2.5,7.2,0C479.1,509.2,480.2,506.5,480.2,506.5z"/>
			<path fill="#F0C7AD" d="M449.8,530.2C449.8,530.2,449.8,530.2,449.8,530.2c-2.9,0-4.7-3.5-5.8-4.9c-0.5-0.2-1.1-0.3-1.7-0.3
				c-0.7,0.5-1.2,1.7-1.1,2.2c0.2,1-0.2,2.5-0.7,2.5c-0.5,0-2.3-0.4-2.3-0.4c-1.4-0.4-3.2-1.1-4.3-1.8c-1.9-1.3-3.4,0.6-3.4,0.6
				c0.5,7.9,4.7,8.9,4.7,8.9l0,0c0.9,0.5,2.1,1,3.7,1.5c7.6,2.4,15.6-1.6,15.6-1.6v-5.3C454.5,531.8,452,531.2,449.8,530.2z"/>
			<polygon fill="#4382E9" points="484.4,503.9 475.2,503.9 475.2,514.5 479.8,519.5 			"/>
			<path fill="#4382E9" d="M501.9,474.5c0,0-9.9,4.2-14.5,12.2c-4.6,8-7.2,19.8-7.2,19.8l-8.7,20.6c0,0-18.4,0.4-22.6,0l-1.5,13.7
				c0,0,10.7,2.3,19,3.8s17.1-1.1,18.3-5c1.1-3.8,3-4.6,3-4.6s1.1,11.8-2.7,19c-3.8,7.2-3.8,12.2-3.8,12.2s4.2,13.7,18.3,16.4
				c14.1,2.7,32.4-10.3,32.4-10.3s1.1-34.3,1.5-47.2c0.4-13-0.8-41.9-5-48.4c-4.2-6.5-13-6.9-14.9-6.9
				C511.8,470,504.9,473,501.9,474.5z"/>
		</g>
		<g>
			<path fill="#FCB794" d="M1045.4,1080.2c0,0-3.8,0.9-4.9,4.6c-1.1,3.7,1.4,6.5,1.9,7.6c0.6,1.1,2.6,1.4,3,2
				c0.4,0.6,2.7,1.7,4.1,1.4c1.4-0.3,3.4-6.8,2-11S1045.4,1080.2,1045.4,1080.2z"/>
			<path fill="#4B4B4B" d="M1102.2,1103.2c2.1-9.5,0.6-30,0.6-30s-12.9-2.5-18.3,10c-6.6-3.5-28.2-1.4-28.2-1.4s-7,23.5-8.1,33.9
				c-1.2,10.4,2.3,23.8,6.4,33.6c4,9.8,7.9,38.6,8.2,40.4c0.3,1.8,0,5,0,5l10.7-12.8c0,0-0.9-19.6-2.1-30.6s-2.5-22.3-2.5-22.3
				s6-19,10.3-25l2-3.3c0,0,0.3-0.4,0.7-1c-0.8,20.5,2.3,41.5,2.6,46.8c0.3,5.9,0,35.9,0,35.9l8.3,3c0,0,0-4.8,2.7-18.1
				s4.2-46.6,4.5-52.6C1100.1,1108.8,1100.1,1112.7,1102.2,1103.2z"/>
			<path fill="#FCB794" d="M1064.4,984.2l0.2-2.1c0,0-2.4-4.7-4.7-6.7c-2.2-2.1-9.6-6.4-11.1-7.1s-3.6-1.9-5.5-1.9
				c-1.9,0-0.6,3,2.9,5.2c3.5,2.2,5.2,3.7,5.2,3.7s0.6,2.5-0.7,2.5s-1.9,1.5-1.9,1.5s0.6,3.7,1.9,4.9s4.7,4.2,4.7,4.2l11.1,5.6
				L1064.4,984.2z"/>
			<path fill="#FEDB59" d="M1068.3,1018.1c0,0-9.6-19.6-10.8-22.6c-1.2-3.1-3.1-7.5-3.1-7.5l10-6.9c0,0,13,14.5,13.7,14.9
				c0.6,0.4,7.5,14.7,7.5,15.5s-3.2,10.4-3.2,10.4L1068.3,1018.1z"/>
			<path fill="#FCB794" d="M1070.4,1011.8c0-3.1,0-6.6,0-6.6c-5-4.6-3.9-11.2-3.9-11.2l-0.1-3.2c0,0,3.5,5.1,5.8,7
				c2.3,1.9,3,8.6,10.3,9.6c0,0,3.3,9.6-4,8.2C1071.3,1014.2,1070.4,1011.8,1070.4,1011.8z"/>
			<path fill="#432312" d="M1068.5,996.9c-0.3-0.6-2.1-6.1-2.1-6.1s-1.2-2.3,0-7.5c1.2-5.1,6.8-8.9,12.8-8.4
				c6.1,0.5,16.6,4.7,15.7,15.9c0,0,3.7,2.3,5.4,11c1.6,8.6-2.1,13.8-5.8,17.3c-3.7,3.5-4.4,9.1-4.4,9.1s-8.9-6.3-7.5-20.8
				C1082.6,1007.4,1073.9,1008.8,1068.5,996.9z"/>
			<path fill="#FEDB59" d="M1098.7,1009.5c12.9,8.4,2.6,22-0.2,30.4c-2.8,8.4-1.9,19.2,2.3,23.4s4.3,10.8,4.3,10.8
				c-1.2,3-12.4,20.3-31.6,18s-20.3-12.4-20.3-12.4s0.5-7.5,4.3-15.4c3.8-7.9,1.4-15.9,0.4-25c-0.9-9.1,0-18.2,0-18.2
				c11.9-11.5,27.3-14.3,27.3-14.3L1098.7,1009.5z"/>
			<path fill="#FEDB59" d="M1053.1,1026.4c0,0,2.9-6.8,7.3-4.6c4.4,2.2,7.6,4,8.2,8.1c0.6,4.1-2.7,20.6-2.2,24.7
				c0.4,4.1-2.8,11.8-4.8,15.6c-2.1,3.8-9.7,18.2-9.7,18.2l-8.2-6.2c0,0,5.9-18.7,6.4-22.3c0.6-3.5,3-19.1,3-19.1V1026.4z"/>
			<path fill="#35190D" d="M1090,1028.2c0,0,0.7-5.6,4.4-9.1s7.5-8.6,5.8-17.3c-1.6-8.6-5.4-11-5.4-11s-9.1-0.2-12.4,16.6
				C1081.2,1021.9,1090,1028.2,1090,1028.2z"/>
			<path fill="#343254" d="M1086.5,1191.9c0,0,2.1-0.3,4,2.7c1.9,3.1,1.6,5,1.6,5h3.1c0,0,1-7.5-0.7-10.2S1087,1188.7,1086.5,1191.9
				z"/>
			<path fill="#6E6E6E" d="M1087.8,1181.9c0,0-2.1-0.8-3.5,0.6c-1.4,1.4-1,7.3-6.1,8.6s-1.4,8.1-1.4,8.1s4.2,1.1,6.6,0
				s2.8-10.3,11.2-9.7C1094.6,1189.5,1096.4,1180.3,1087.8,1181.9z"/>
			<path fill="#343254" d="M1070.2,1195.6c0,0,3.4,2.4,3.1,5.8c-0.3,3.4,0,5.8,0,5.8h4.8c0,0,0.6-10.7-1-14.9
				C1075.4,1188.2,1070.2,1195.6,1070.2,1195.6z"/>
			<path fill="#6E6E6E" d="M1071.2,1182.6c0,0-3.3,1.4-5.4,6c-2.1,4.6-3.9,7.3-6.6,7.6c-2.7,0.3-5.2,0.6-7,2.1c0,0-1.2,3.4,0.6,6
				c1.8,2.5,5.9,3.6,8.7,2.5c2.8-1,5.9-8.7,9.7-11.2s6.1-2.1,6.6-1.9c0.4,0.1,1.6-9.4-4.5-11.8L1071.2,1182.6z"/>
		</g>
		<g>
			<polygon fill="#E5E5E5" points="445.4,993.3 477.8,1010.9 441.8,1038.6 409.3,1021 			"/>
			<path fill="#E9B488" d="M447.2,1041.5c0,0,5-0.9,7.9-1.9c2.8-1.1,7.5-5.1,8.1-6.7c0.5-1.6,1.2-8.1,0-9.5
				c-1.2-1.4-5.8,3.5-7.6,5.1c-1.8,1.6-1.8,1.6-1.8,1.6s1.4-4.2,1.1-5.3c-0.4-1.1-2.5-1.2-4.9,1.4c-2.5,2.6-8.9,8.4-8.9,8.4
				L447.2,1041.5z"/>
			<path fill="#031E6C" d="M404.5,1211.2l1.7,1.1c0,0,4,0.6,8.5-0.6c4.6-1.1,9.7-0.9,8.8,3.4c-0.9,4.3-8.2,7.7-11.4,9.1
				c-3.1,1.4-9.4,3.4-10.2,4.6c-0.9,1.1-2.3,2.8-7.1,1.7c-4.8-1.1-5-3.1-5-3.1v-17.6L404.5,1211.2z"/>
			<path fill="#031E6C" d="M376.6,1197.8c0,0,5.7-2.8,7.7-2.6c2,0.3,4.3,3.4,0,8s-6,6.5-7.7,10c-1.7,3.4-2.8,6-6.8,5.7
				c-1.2-0.1-2.3-0.4-3.3-0.8c-2.5-1-4.1-3.4-4.1-6.1v-9.1l12.2-5.7L376.6,1197.8z"/>
			<path fill="#A78264" d="M415.9,1101.7l1.3,4.3c0,0-0.5,25.3-4.4,43.5c-4,18.2-6.5,62.9-6.5,62.9s-0.9,4.3-6.3,4.6
				s-10.8-3.1-10.8-3.1s-0.9-26.5,0-42.1c0.9-15.6,1.8-25-0.4-33c0,0-1.9,17.4-4.7,27.9c-2.8,10.5-5.4,29-6.5,37
				c0,0-1.1,5.1-5.4,5.1s-5.7-0.9-8.5-4.3c0,0-1.4-25.3-1.1-36.4c0.3-11.1,6.3-26.5,6.3-26.5s-1.4-40.1-0.9-50.9
				c0.6-10.8,19.6-18.5,19.6-18.5L415.9,1101.7z"/>
			<path fill="#E9B488" d="M410.5,963.5v20.8c0,0,0.3,7.1-2.6,8.2c-2.8,1.1-6.3,0-6.3,0v6.3c0,0-8.2,1.7-14.8-3.1v-6.5l10.2-21
				C397.1,968,407.6,961.5,410.5,963.5z"/>
			<path fill="#656356" d="M401.6,998.7c0,0,9.1,3.4,14.5,8.5s4.8,14.8,5.4,22.5c0.6,7.7,1.7,12.8,1.7,12.8s14.8-8.8,16.5-9.4
				c0,0,9.4,2,7.1,11.1c0,0-11.4,8-17.6,12.2c-6.3,4.3-11.9,8-15.9,8c0,0,1.4,8,4,17.6c2.6,9.7,1.7,23,1.7,23s-10.2,5.7-19.3,4.8
				c-9.1-0.9-12.8-3.7-12.8-3.7l-4.3-17.1v14.2c0,0-10.5-5.1-14.8-12.8c0,0,0.6-15.9,1.7-21.3c1.1-5.4-6.5-25.6-8.8-33.6
				c-2.3-8,3.1-33.3,5.4-38.4s11.4-10,20.8-5.4L401.6,998.7z"/>
			<path fill="#713D23" d="M410.5,963.5c0,0,0.6-4.8-4-7.7c-4.6-2.8-12.8-3.1-18.5,0s-10,7.7-9.4,17.4c0.6,9.7,8.2,17.4,8.2,17.4
				s3.1,0.9,9.7-6c6.5-6.8,8.1-15.7,9.7-18.5C407.8,963.2,410.5,963.5,410.5,963.5z"/>
		</g>
		<g>
			<g>
				<g>
					<path fill="#EFC100" d="M689.2,1012.7c0,0.1,0,0.3,0,0.4c0,0.1,0,0.2,0,0.4c0,0.1,0,0.3-0.1,0.4c0,0.1,0,0.2-0.1,0.4
						c0,0.1-0.1,0.3-0.1,0.4c0,0.1-0.1,0.2-0.1,0.4c0,0.1-0.1,0.3-0.1,0.4c0,0.1-0.1,0.2-0.1,0.3c-0.1,0.1-0.1,0.3-0.2,0.4
						c-0.1,0.1-0.1,0.2-0.2,0.3c-0.1,0.1-0.1,0.3-0.2,0.4c-0.1,0.1-0.1,0.2-0.2,0.3c-0.1,0.2-0.2,0.3-0.3,0.5
						c-0.1,0.1-0.1,0.2-0.2,0.3c-0.1,0.2-0.2,0.3-0.4,0.5c-0.1,0.1-0.1,0.2-0.2,0.2c-0.2,0.3-0.5,0.5-0.7,0.8
						c-0.1,0.1-0.1,0.1-0.2,0.2c-0.2,0.2-0.4,0.4-0.6,0.6c-0.1,0.1-0.2,0.2-0.3,0.3c-0.1,0.1-0.3,0.2-0.4,0.3
						c-0.1,0.1-0.2,0.2-0.4,0.3c-0.1,0.1-0.3,0.2-0.4,0.3c-0.1,0.1-0.3,0.2-0.4,0.3c-0.1,0.1-0.3,0.2-0.5,0.3
						c-0.1,0.1-0.3,0.2-0.4,0.3c-0.2,0.1-0.3,0.2-0.5,0.3c-0.2,0.1-0.4,0.3-0.6,0.4c-0.6,0.3-1.2,0.7-1.8,1
						c-0.2,0.1-0.3,0.2-0.5,0.2c-0.6,0.3-1.1,0.5-1.7,0.7c-0.1,0-0.2,0.1-0.2,0.1c-0.6,0.2-1.3,0.5-1.9,0.7
						c-0.5,0.1-0.9,0.3-1.4,0.4c-0.4,0.1-0.7,0.2-1.1,0.3c-0.5,0.1-1,0.2-1.5,0.3c-0.4,0.1-0.7,0.2-1.1,0.2c-0.2,0-0.3,0-0.5,0.1
						c-0.6,0.1-1.2,0.2-1.9,0.3c-0.2,0-0.4,0-0.6,0.1c-0.4,0-0.7,0.1-1.1,0.1c-0.6,0.1-1.2,0.1-1.8,0.1c-0.4,0-0.8,0-1.2,0
						c-0.5,0-1,0-1.5,0c-0.4,0-0.8,0-1.2,0c-0.5,0-0.9,0-1.4-0.1c-0.4,0-0.8-0.1-1.3-0.1c-0.5,0-0.9-0.1-1.3-0.2
						c-0.4-0.1-0.8-0.1-1.2-0.2c-0.5-0.1-1-0.2-1.4-0.2c-0.4-0.1-0.8-0.1-1.1-0.2c-0.6-0.1-1.1-0.3-1.7-0.4
						c-0.4-0.1-0.7-0.2-1.1-0.3c-0.2-0.1-0.4-0.1-0.6-0.2c-0.6-0.2-1.1-0.4-1.6-0.6c-0.2-0.1-0.3-0.1-0.5-0.2
						c-0.5-0.2-1-0.4-1.4-0.6c-0.2-0.1-0.5-0.2-0.7-0.3c-0.7-0.3-1.3-0.7-2-1c-3.7-2.1-6.1-4.7-7.2-7.4c-0.5-1.2-0.8-2.5-0.8-3.8
						l0,7.6c0,4,2.7,8.1,8,11.2c0.6,0.4,1.3,0.7,2,1c0.2,0.1,0.5,0.2,0.7,0.3c0.4,0.2,0.8,0.4,1.2,0.5c0.1,0,0.1,0.1,0.2,0.1
						c0.2,0.1,0.3,0.1,0.5,0.2c0.5,0.2,1.1,0.4,1.6,0.6c0.2,0.1,0.4,0.1,0.6,0.2c0.1,0,0.3,0.1,0.4,0.1c0.2,0.1,0.5,0.1,0.7,0.2
						c0.6,0.1,1.1,0.3,1.7,0.4c0.2,0,0.3,0.1,0.4,0.1c0.2,0,0.5,0.1,0.7,0.1c0.5,0.1,1,0.2,1.4,0.2c0.2,0,0.4,0.1,0.6,0.1
						c0.2,0,0.4,0,0.6,0.1c0.4,0.1,0.9,0.1,1.3,0.2c0.2,0,0.4,0.1,0.6,0.1c0.2,0,0.4,0,0.6,0c0.5,0,0.9,0.1,1.4,0.1
						c0.2,0,0.5,0,0.7,0c0.2,0,0.4,0,0.6,0c0.5,0,1,0,1.5,0c0.2,0,0.5,0,0.7,0c0.1,0,0.3,0,0.4,0c0.6,0,1.2-0.1,1.8-0.1
						c0.2,0,0.5,0,0.7,0c0.1,0,0.2,0,0.4,0c0.2,0,0.4,0,0.5-0.1c0.6-0.1,1.3-0.2,1.9-0.3c0.2,0,0.3,0,0.5-0.1c0.1,0,0.1,0,0.2,0
						c0.3-0.1,0.6-0.1,0.9-0.2c0.5-0.1,1-0.2,1.5-0.3c0.4-0.1,0.7-0.2,1.1-0.3c0.5-0.1,0.9-0.3,1.4-0.4c0.1,0,0.2-0.1,0.3-0.1
						c0.6-0.2,1.1-0.4,1.6-0.6c0.1,0,0.2-0.1,0.2-0.1c0.6-0.2,1.2-0.5,1.7-0.7c0.2-0.1,0.3-0.2,0.5-0.2c0.6-0.3,1.2-0.6,1.8-1
						c0.1-0.1,0.2-0.1,0.3-0.2c0.1-0.1,0.2-0.1,0.3-0.2c0.2-0.1,0.3-0.2,0.5-0.3c0.1-0.1,0.3-0.2,0.4-0.3c0.2-0.1,0.3-0.2,0.5-0.3
						c0.1-0.1,0.3-0.2,0.4-0.3c0.1-0.1,0.3-0.2,0.4-0.3c0.1-0.1,0.3-0.2,0.4-0.3c0.1-0.1,0.3-0.2,0.4-0.3c0.1,0,0.1-0.1,0.2-0.1
						c0,0,0.1-0.1,0.1-0.1c0.2-0.2,0.4-0.4,0.6-0.6c0.1-0.1,0.1-0.1,0.2-0.2c0.2-0.3,0.5-0.5,0.7-0.8c0,0,0,0,0,0
						c0.1-0.1,0.1-0.1,0.1-0.2c0.1-0.2,0.3-0.3,0.4-0.5c0.1-0.1,0.1-0.2,0.2-0.3c0.1-0.2,0.2-0.3,0.3-0.5c0,0,0.1-0.1,0.1-0.1
						c0-0.1,0.1-0.1,0.1-0.2c0.1-0.1,0.1-0.3,0.2-0.4c0.1-0.1,0.1-0.2,0.2-0.3c0.1-0.1,0.1-0.3,0.2-0.4c0-0.1,0.1-0.1,0.1-0.2
						c0-0.1,0-0.1,0.1-0.2c0-0.1,0.1-0.3,0.1-0.4c0-0.1,0.1-0.2,0.1-0.4c0-0.1,0.1-0.3,0.1-0.4c0-0.1,0-0.1,0.1-0.2c0,0,0-0.1,0-0.1
						c0-0.1,0-0.3,0.1-0.4c0-0.1,0-0.2,0-0.4c0-0.1,0-0.3,0-0.4c0-0.1,0-0.2,0-0.2c0-0.1,0-0.2,0-0.2l0-7.6
						C689.3,1012.4,689.2,1012.6,689.2,1012.7z"/>
					<g>
						<path fill="#FDD400" d="M681.3,1001.1c10.6,6.1,10.6,16,0.1,22.2c-10.5,6.1-27.7,6.1-38.3,0c-10.6-6.1-10.7-16-0.1-22.2
							C653.5,995,670.7,995,681.3,1001.1z"/>
					</g>
					<g>
						<path fill="#EC8659" d="M671,1010.6c2.3,1.3,2.7,3.4,0.2,5.5l2.7,1.5l-2.6,1.5l-2.5-1.4c-1.8,1-4,1.7-5.5,1.9l-2.3-2.2
							c1.7-0.3,3.7-0.9,5.4-1.8c1.5-0.9,1.9-1.8,0.9-2.4c-1-0.6-2.5-0.5-5,0.3c-3.7,1.1-6.9,1.4-9.5,0c-2.3-1.3-2.5-3.3-0.3-5.2
							l-2.5-1.4l2.6-1.5l2.3,1.3c1.8-1,3.4-1.4,4.6-1.7l2.2,2.2c-1,0.2-2.8,0.6-4.6,1.7c-1.7,1-1.5,1.7-0.8,2.1
							c0.9,0.5,2.3,0.3,5.4-0.5C666,1009.1,668.7,1009.2,671,1010.6z"/>
					</g>
				</g>
			</g>
			<g>
				<g>
					<path fill="#EFC100" d="M689.2,1000.4c0,0.1,0,0.3,0,0.4c0,0.1,0,0.2,0,0.4c0,0.1,0,0.3-0.1,0.4c0,0.1,0,0.2-0.1,0.4
						c0,0.1-0.1,0.3-0.1,0.4c0,0.1-0.1,0.2-0.1,0.4c0,0.1-0.1,0.3-0.1,0.4c0,0.1-0.1,0.2-0.1,0.3c-0.1,0.1-0.1,0.3-0.2,0.4
						c-0.1,0.1-0.1,0.2-0.2,0.3c-0.1,0.1-0.1,0.3-0.2,0.4c-0.1,0.1-0.1,0.2-0.2,0.3c-0.1,0.2-0.2,0.3-0.3,0.5
						c-0.1,0.1-0.1,0.2-0.2,0.3c-0.1,0.2-0.2,0.3-0.4,0.5c-0.1,0.1-0.1,0.2-0.2,0.2c-0.2,0.3-0.5,0.5-0.7,0.8
						c-0.1,0.1-0.1,0.1-0.2,0.2c-0.2,0.2-0.4,0.4-0.6,0.6c-0.1,0.1-0.2,0.2-0.3,0.3c-0.1,0.1-0.3,0.2-0.4,0.3
						c-0.1,0.1-0.2,0.2-0.4,0.3c-0.1,0.1-0.3,0.2-0.4,0.3c-0.1,0.1-0.3,0.2-0.4,0.3c-0.1,0.1-0.3,0.2-0.5,0.3
						c-0.1,0.1-0.3,0.2-0.4,0.3c-0.2,0.1-0.3,0.2-0.5,0.3c-0.2,0.1-0.4,0.3-0.6,0.4c-0.6,0.3-1.2,0.7-1.8,1
						c-0.2,0.1-0.3,0.2-0.5,0.2c-0.6,0.3-1.1,0.5-1.7,0.7c-0.1,0-0.2,0.1-0.2,0.1c-0.6,0.2-1.3,0.5-1.9,0.7
						c-0.5,0.1-0.9,0.3-1.4,0.4c-0.4,0.1-0.7,0.2-1.1,0.3c-0.5,0.1-1,0.2-1.5,0.3c-0.4,0.1-0.7,0.2-1.1,0.2c-0.2,0-0.3,0-0.5,0.1
						c-0.6,0.1-1.2,0.2-1.9,0.3c-0.2,0-0.4,0-0.6,0.1c-0.4,0-0.7,0.1-1.1,0.1c-0.6,0.1-1.2,0.1-1.8,0.1c-0.4,0-0.8,0-1.2,0
						c-0.5,0-1,0-1.5,0c-0.4,0-0.8,0-1.2,0c-0.5,0-0.9,0-1.4-0.1c-0.4,0-0.8-0.1-1.3-0.1c-0.5,0-0.9-0.1-1.3-0.2
						c-0.4-0.1-0.8-0.1-1.2-0.2c-0.5-0.1-1-0.2-1.4-0.2c-0.4-0.1-0.8-0.1-1.1-0.2c-0.6-0.1-1.1-0.3-1.7-0.4
						c-0.4-0.1-0.7-0.2-1.1-0.3c-0.2-0.1-0.4-0.1-0.6-0.2c-0.6-0.2-1.1-0.4-1.6-0.6c-0.2-0.1-0.3-0.1-0.5-0.2
						c-0.5-0.2-1-0.4-1.4-0.6c-0.2-0.1-0.5-0.2-0.7-0.3c-0.7-0.3-1.3-0.7-2-1c-3.7-2.1-6.1-4.7-7.2-7.4c-0.5-1.2-0.8-2.5-0.8-3.8
						l0,7.6c0,4,2.7,8.1,8,11.2c0.6,0.4,1.3,0.7,2,1c0.2,0.1,0.5,0.2,0.7,0.3c0.4,0.2,0.8,0.4,1.2,0.5c0.1,0,0.1,0.1,0.2,0.1
						c0.2,0.1,0.3,0.1,0.5,0.2c0.5,0.2,1.1,0.4,1.6,0.6c0.2,0.1,0.4,0.1,0.6,0.2c0.1,0,0.3,0.1,0.4,0.1c0.2,0.1,0.5,0.1,0.7,0.2
						c0.6,0.1,1.1,0.3,1.7,0.4c0.2,0,0.3,0.1,0.4,0.1c0.2,0,0.5,0.1,0.7,0.1c0.5,0.1,1,0.2,1.4,0.2c0.2,0,0.4,0.1,0.6,0.1
						c0.2,0,0.4,0,0.6,0.1c0.4,0.1,0.9,0.1,1.3,0.2c0.2,0,0.4,0.1,0.6,0.1c0.2,0,0.4,0,0.6,0c0.5,0,0.9,0.1,1.4,0.1
						c0.2,0,0.5,0,0.7,0c0.2,0,0.4,0,0.6,0c0.5,0,1,0,1.5,0c0.2,0,0.5,0,0.7,0c0.1,0,0.3,0,0.4,0c0.6,0,1.2-0.1,1.8-0.1
						c0.2,0,0.5,0,0.7,0c0.1,0,0.2,0,0.4,0c0.2,0,0.4,0,0.5-0.1c0.6-0.1,1.3-0.2,1.9-0.3c0.2,0,0.3,0,0.5-0.1c0.1,0,0.1,0,0.2,0
						c0.3-0.1,0.6-0.1,0.9-0.2c0.5-0.1,1-0.2,1.5-0.3c0.4-0.1,0.7-0.2,1.1-0.3c0.5-0.1,0.9-0.3,1.4-0.4c0.1,0,0.2-0.1,0.3-0.1
						c0.6-0.2,1.1-0.4,1.6-0.6c0.1,0,0.2-0.1,0.2-0.1c0.6-0.2,1.2-0.5,1.7-0.7c0.2-0.1,0.3-0.2,0.5-0.2c0.6-0.3,1.2-0.6,1.8-1
						c0.1-0.1,0.2-0.1,0.3-0.2c0.1-0.1,0.2-0.1,0.3-0.2c0.2-0.1,0.3-0.2,0.5-0.3c0.1-0.1,0.3-0.2,0.4-0.3c0.2-0.1,0.3-0.2,0.5-0.3
						c0.1-0.1,0.3-0.2,0.4-0.3c0.1-0.1,0.3-0.2,0.4-0.3c0.1-0.1,0.3-0.2,0.4-0.3c0.1-0.1,0.3-0.2,0.4-0.3c0.1,0,0.1-0.1,0.2-0.1
						c0,0,0.1-0.1,0.1-0.1c0.2-0.2,0.4-0.4,0.6-0.6c0.1-0.1,0.1-0.1,0.2-0.2c0.2-0.3,0.5-0.5,0.7-0.8c0,0,0,0,0,0
						c0.1-0.1,0.1-0.1,0.1-0.2c0.1-0.2,0.3-0.3,0.4-0.5c0.1-0.1,0.1-0.2,0.2-0.3c0.1-0.2,0.2-0.3,0.3-0.5c0,0,0.1-0.1,0.1-0.1
						c0-0.1,0.1-0.1,0.1-0.2c0.1-0.1,0.1-0.3,0.2-0.4c0.1-0.1,0.1-0.2,0.2-0.3c0.1-0.1,0.1-0.3,0.2-0.4c0-0.1,0.1-0.1,0.1-0.2
						c0-0.1,0-0.1,0.1-0.2c0-0.1,0.1-0.3,0.1-0.4c0-0.1,0.1-0.2,0.1-0.4c0-0.1,0.1-0.3,0.1-0.4c0-0.1,0-0.1,0.1-0.2c0,0,0-0.1,0-0.1
						c0-0.1,0-0.3,0.1-0.4c0-0.1,0-0.2,0-0.4c0-0.1,0-0.3,0-0.4c0-0.1,0-0.2,0-0.2c0-0.1,0-0.2,0-0.2l0-7.6
						C689.3,1000.1,689.2,1000.3,689.2,1000.4z"/>
					<g>
						<path fill="#FDD400" d="M681.3,988.8c10.6,6.1,10.6,16,0.1,22.2c-10.5,6.1-27.7,6.1-38.3,0c-10.6-6.1-10.7-16-0.1-22.2
							C653.5,982.7,670.7,982.7,681.3,988.8z"/>
					</g>
					<g>
						<path fill="#EC8659" d="M671,998.3c2.3,1.3,2.7,3.4,0.2,5.5l2.7,1.5l-2.6,1.5l-2.5-1.4c-1.8,1-4,1.7-5.5,1.9l-2.3-2.2
							c1.7-0.3,3.7-0.9,5.4-1.8c1.5-0.9,1.9-1.8,0.9-2.4c-1-0.6-2.5-0.5-5,0.3c-3.7,1.1-6.9,1.4-9.5,0c-2.3-1.3-2.5-3.3-0.3-5.2
							l-2.5-1.4l2.6-1.5l2.3,1.3c1.8-1,3.4-1.4,4.6-1.7l2.2,2.2c-1,0.2-2.8,0.6-4.6,1.7c-1.7,1-1.5,1.7-0.8,2.1
							c0.9,0.5,2.3,0.3,5.4-0.5C666,996.8,668.7,996.9,671,998.3z"/>
					</g>
				</g>
			</g>
			<g>
				<g>
					<path fill="#EFC100" d="M683.5,989.3c0,0.1,0,0.3,0,0.4c0,0.1,0,0.2,0,0.4c0,0.1,0,0.3-0.1,0.4c0,0.1,0,0.2-0.1,0.4
						c0,0.1-0.1,0.3-0.1,0.4c0,0.1-0.1,0.2-0.1,0.4c0,0.1-0.1,0.3-0.1,0.4c0,0.1-0.1,0.2-0.1,0.3c-0.1,0.1-0.1,0.3-0.2,0.4
						c-0.1,0.1-0.1,0.2-0.2,0.3c-0.1,0.1-0.1,0.3-0.2,0.4c-0.1,0.1-0.1,0.2-0.2,0.3c-0.1,0.2-0.2,0.3-0.3,0.5
						c-0.1,0.1-0.1,0.2-0.2,0.3c-0.1,0.2-0.2,0.3-0.4,0.5c-0.1,0.1-0.1,0.2-0.2,0.2c-0.2,0.3-0.5,0.5-0.7,0.8
						c-0.1,0.1-0.1,0.1-0.2,0.2c-0.2,0.2-0.4,0.4-0.6,0.6c-0.1,0.1-0.2,0.2-0.3,0.3c-0.1,0.1-0.3,0.2-0.4,0.3
						c-0.1,0.1-0.2,0.2-0.4,0.3c-0.1,0.1-0.3,0.2-0.4,0.3c-0.1,0.1-0.3,0.2-0.4,0.3c-0.1,0.1-0.3,0.2-0.5,0.3
						c-0.1,0.1-0.3,0.2-0.4,0.3c-0.2,0.1-0.3,0.2-0.5,0.3c-0.2,0.1-0.4,0.3-0.6,0.4c-0.6,0.3-1.2,0.7-1.8,1
						c-0.2,0.1-0.3,0.2-0.5,0.2c-0.6,0.3-1.1,0.5-1.7,0.7c-0.1,0-0.2,0.1-0.2,0.1c-0.6,0.2-1.3,0.5-1.9,0.7
						c-0.5,0.1-0.9,0.3-1.4,0.4c-0.4,0.1-0.7,0.2-1.1,0.3c-0.5,0.1-1,0.2-1.5,0.3c-0.4,0.1-0.7,0.2-1.1,0.2c-0.2,0-0.3,0-0.5,0.1
						c-0.6,0.1-1.2,0.2-1.9,0.3c-0.2,0-0.4,0-0.6,0.1c-0.4,0-0.7,0.1-1.1,0.1c-0.6,0.1-1.2,0.1-1.8,0.1c-0.4,0-0.8,0-1.2,0
						c-0.5,0-1,0-1.5,0c-0.4,0-0.8,0-1.2,0c-0.5,0-0.9,0-1.4-0.1c-0.4,0-0.8-0.1-1.3-0.1c-0.5,0-0.9-0.1-1.3-0.2
						c-0.4-0.1-0.8-0.1-1.2-0.2c-0.5-0.1-1-0.2-1.4-0.2c-0.4-0.1-0.8-0.1-1.1-0.2c-0.6-0.1-1.1-0.3-1.7-0.4
						c-0.4-0.1-0.7-0.2-1.1-0.3c-0.2-0.1-0.4-0.1-0.6-0.2c-0.6-0.2-1.1-0.4-1.6-0.6c-0.2-0.1-0.3-0.1-0.5-0.2
						c-0.5-0.2-1-0.4-1.4-0.6c-0.2-0.1-0.5-0.2-0.7-0.3c-0.7-0.3-1.3-0.7-2-1c-3.7-2.1-6.1-4.7-7.2-7.4c-0.5-1.2-0.8-2.5-0.8-3.8
						l0,7.6c0,4,2.7,8.1,8,11.2c0.6,0.4,1.3,0.7,2,1c0.2,0.1,0.5,0.2,0.7,0.3c0.4,0.2,0.8,0.4,1.2,0.5c0.1,0,0.1,0.1,0.2,0.1
						c0.2,0.1,0.3,0.1,0.5,0.2c0.5,0.2,1.1,0.4,1.6,0.6c0.2,0.1,0.4,0.1,0.6,0.2c0.1,0,0.3,0.1,0.4,0.1c0.2,0.1,0.5,0.1,0.7,0.2
						c0.6,0.1,1.1,0.3,1.7,0.4c0.2,0,0.3,0.1,0.4,0.1c0.2,0,0.5,0.1,0.7,0.1c0.5,0.1,1,0.2,1.4,0.2c0.2,0,0.4,0.1,0.6,0.1
						c0.2,0,0.4,0,0.6,0.1c0.4,0.1,0.9,0.1,1.3,0.2c0.2,0,0.4,0.1,0.6,0.1c0.2,0,0.4,0,0.6,0c0.5,0,0.9,0.1,1.4,0.1
						c0.2,0,0.5,0,0.7,0c0.2,0,0.4,0,0.6,0c0.5,0,1,0,1.5,0c0.2,0,0.5,0,0.7,0c0.1,0,0.3,0,0.4,0c0.6,0,1.2-0.1,1.8-0.1
						c0.2,0,0.5,0,0.7,0c0.1,0,0.2,0,0.4,0c0.2,0,0.4,0,0.5-0.1c0.6-0.1,1.3-0.2,1.9-0.3c0.2,0,0.3,0,0.5-0.1c0.1,0,0.1,0,0.2,0
						c0.3-0.1,0.6-0.1,0.9-0.2c0.5-0.1,1-0.2,1.5-0.3c0.4-0.1,0.7-0.2,1.1-0.3c0.5-0.1,0.9-0.3,1.4-0.4c0.1,0,0.2-0.1,0.3-0.1
						c0.6-0.2,1.1-0.4,1.6-0.6c0.1,0,0.2-0.1,0.2-0.1c0.6-0.2,1.2-0.5,1.7-0.7c0.2-0.1,0.3-0.2,0.5-0.2c0.6-0.3,1.2-0.6,1.8-1
						c0.1-0.1,0.2-0.1,0.3-0.2c0.1-0.1,0.2-0.1,0.3-0.2c0.2-0.1,0.3-0.2,0.5-0.3c0.1-0.1,0.3-0.2,0.4-0.3c0.2-0.1,0.3-0.2,0.5-0.3
						c0.1-0.1,0.3-0.2,0.4-0.3c0.1-0.1,0.3-0.2,0.4-0.3c0.1-0.1,0.3-0.2,0.4-0.3c0.1-0.1,0.3-0.2,0.4-0.3c0.1,0,0.1-0.1,0.2-0.1
						c0,0,0.1-0.1,0.1-0.1c0.2-0.2,0.4-0.4,0.6-0.6c0.1-0.1,0.1-0.1,0.2-0.2c0.2-0.3,0.5-0.5,0.7-0.8c0,0,0,0,0,0
						c0.1-0.1,0.1-0.1,0.1-0.2c0.1-0.2,0.3-0.3,0.4-0.5c0.1-0.1,0.1-0.2,0.2-0.3c0.1-0.2,0.2-0.3,0.3-0.5c0,0,0.1-0.1,0.1-0.1
						c0-0.1,0.1-0.1,0.1-0.2c0.1-0.1,0.1-0.3,0.2-0.4c0.1-0.1,0.1-0.2,0.2-0.3c0.1-0.1,0.1-0.3,0.2-0.4c0-0.1,0.1-0.1,0.1-0.2
						c0-0.1,0-0.1,0.1-0.2c0-0.1,0.1-0.3,0.1-0.4c0-0.1,0.1-0.2,0.1-0.4c0-0.1,0.1-0.3,0.1-0.4c0-0.1,0-0.1,0.1-0.2c0,0,0-0.1,0-0.1
						c0-0.1,0-0.3,0.1-0.4c0-0.1,0-0.2,0-0.4c0-0.1,0-0.3,0-0.4c0-0.1,0-0.2,0-0.2c0-0.1,0-0.2,0-0.2l0-7.6
						C683.6,989,683.5,989.1,683.5,989.3z"/>
					<g>
						<path fill="#FDD400" d="M675.6,977.6c10.6,6.1,10.6,16,0.1,22.2c-10.5,6.1-27.7,6.1-38.3,0c-10.6-6.1-10.7-16-0.1-22.2
							C647.8,971.5,665,971.5,675.6,977.6z"/>
					</g>
					<g>
						<path fill="#EC8659" d="M665.3,987.1c2.3,1.3,2.7,3.4,0.2,5.5l2.7,1.5l-2.6,1.5l-2.5-1.4c-1.8,1-4,1.7-5.5,1.9l-2.3-2.2
							c1.7-0.3,3.7-0.9,5.4-1.8c1.5-0.9,1.9-1.8,0.9-2.4c-1-0.6-2.5-0.5-5,0.3c-3.7,1.1-6.9,1.4-9.5,0c-2.3-1.3-2.5-3.3-0.3-5.2
							l-2.5-1.4l2.6-1.5l2.3,1.3c1.8-1,3.4-1.4,4.6-1.7l2.2,2.2c-1,0.2-2.8,0.6-4.6,1.7c-1.7,1-1.5,1.7-0.8,2.1
							c0.9,0.5,2.3,0.3,5.4-0.5C660.3,985.6,663,985.7,665.3,987.1z"/>
					</g>
				</g>
			</g>
			<g>
				<g>
					<path fill="#EFC100" d="M676.2,975.4c0,0.1,0,0.3,0,0.4c0,0.1,0,0.2,0,0.4c0,0.1,0,0.3-0.1,0.4c0,0.1,0,0.2-0.1,0.4
						c0,0.1-0.1,0.3-0.1,0.4c0,0.1-0.1,0.2-0.1,0.4c0,0.1-0.1,0.3-0.1,0.4c0,0.1-0.1,0.2-0.1,0.3c-0.1,0.1-0.1,0.3-0.2,0.4
						c-0.1,0.1-0.1,0.2-0.2,0.3c-0.1,0.1-0.1,0.3-0.2,0.4c-0.1,0.1-0.1,0.2-0.2,0.3c-0.1,0.2-0.2,0.3-0.3,0.5
						c-0.1,0.1-0.1,0.2-0.2,0.3c-0.1,0.2-0.2,0.3-0.4,0.5c-0.1,0.1-0.1,0.2-0.2,0.2c-0.2,0.3-0.5,0.5-0.7,0.8
						c-0.1,0.1-0.1,0.1-0.2,0.2c-0.2,0.2-0.4,0.4-0.6,0.6c-0.1,0.1-0.2,0.2-0.3,0.3c-0.1,0.1-0.3,0.2-0.4,0.3
						c-0.1,0.1-0.2,0.2-0.4,0.3c-0.1,0.1-0.3,0.2-0.4,0.3c-0.1,0.1-0.3,0.2-0.4,0.3c-0.1,0.1-0.3,0.2-0.5,0.3
						c-0.1,0.1-0.3,0.2-0.4,0.3c-0.2,0.1-0.3,0.2-0.5,0.3c-0.2,0.1-0.4,0.3-0.6,0.4c-0.6,0.3-1.2,0.7-1.8,1
						c-0.2,0.1-0.3,0.2-0.5,0.2c-0.6,0.3-1.1,0.5-1.7,0.7c-0.1,0-0.2,0.1-0.2,0.1c-0.6,0.2-1.3,0.5-1.9,0.7
						c-0.5,0.1-0.9,0.3-1.4,0.4c-0.4,0.1-0.7,0.2-1.1,0.3c-0.5,0.1-1,0.2-1.5,0.3c-0.4,0.1-0.7,0.2-1.1,0.2c-0.2,0-0.3,0-0.5,0.1
						c-0.6,0.1-1.2,0.2-1.9,0.3c-0.2,0-0.4,0-0.6,0.1c-0.4,0-0.7,0.1-1.1,0.1c-0.6,0.1-1.2,0.1-1.8,0.1c-0.4,0-0.8,0-1.2,0
						c-0.5,0-1,0-1.5,0c-0.4,0-0.8,0-1.2,0c-0.5,0-0.9,0-1.4-0.1c-0.4,0-0.8-0.1-1.3-0.1c-0.5,0-0.9-0.1-1.3-0.2
						c-0.4-0.1-0.8-0.1-1.2-0.2c-0.5-0.1-1-0.2-1.4-0.2c-0.4-0.1-0.8-0.1-1.1-0.2c-0.6-0.1-1.1-0.3-1.7-0.4
						c-0.4-0.1-0.7-0.2-1.1-0.3c-0.2-0.1-0.4-0.1-0.6-0.2c-0.6-0.2-1.1-0.4-1.6-0.6c-0.2-0.1-0.3-0.1-0.5-0.2
						c-0.5-0.2-1-0.4-1.4-0.6c-0.2-0.1-0.5-0.2-0.7-0.3c-0.7-0.3-1.3-0.7-2-1c-3.7-2.1-6.1-4.7-7.2-7.4c-0.5-1.2-0.8-2.5-0.8-3.8
						l0,7.6c0,4,2.7,8.1,8,11.2c0.6,0.4,1.3,0.7,2,1c0.2,0.1,0.5,0.2,0.7,0.3c0.4,0.2,0.8,0.4,1.2,0.5c0.1,0,0.1,0.1,0.2,0.1
						c0.2,0.1,0.3,0.1,0.5,0.2c0.5,0.2,1.1,0.4,1.6,0.6c0.2,0.1,0.4,0.1,0.6,0.2c0.1,0,0.3,0.1,0.4,0.1c0.2,0.1,0.5,0.1,0.7,0.2
						c0.6,0.1,1.1,0.3,1.7,0.4c0.2,0,0.3,0.1,0.4,0.1c0.2,0,0.5,0.1,0.7,0.1c0.5,0.1,1,0.2,1.4,0.2c0.2,0,0.4,0.1,0.6,0.1
						c0.2,0,0.4,0,0.6,0.1c0.4,0.1,0.9,0.1,1.3,0.2c0.2,0,0.4,0.1,0.6,0.1c0.2,0,0.4,0,0.6,0c0.5,0,0.9,0.1,1.4,0.1
						c0.2,0,0.5,0,0.7,0c0.2,0,0.4,0,0.6,0c0.5,0,1,0,1.5,0c0.2,0,0.5,0,0.7,0c0.1,0,0.3,0,0.4,0c0.6,0,1.2-0.1,1.8-0.1
						c0.2,0,0.5,0,0.7,0c0.1,0,0.2,0,0.4,0c0.2,0,0.4,0,0.5-0.1c0.6-0.1,1.3-0.2,1.9-0.3c0.2,0,0.3,0,0.5-0.1c0.1,0,0.1,0,0.2,0
						c0.3-0.1,0.6-0.1,0.9-0.2c0.5-0.1,1-0.2,1.5-0.3c0.4-0.1,0.7-0.2,1.1-0.3c0.5-0.1,0.9-0.3,1.4-0.4c0.1,0,0.2-0.1,0.3-0.1
						c0.6-0.2,1.1-0.4,1.6-0.6c0.1,0,0.2-0.1,0.2-0.1c0.6-0.2,1.2-0.5,1.7-0.7c0.2-0.1,0.3-0.2,0.5-0.2c0.6-0.3,1.2-0.6,1.8-1
						c0.1-0.1,0.2-0.1,0.3-0.2c0.1-0.1,0.2-0.1,0.3-0.2c0.2-0.1,0.3-0.2,0.5-0.3c0.1-0.1,0.3-0.2,0.4-0.3c0.2-0.1,0.3-0.2,0.5-0.3
						c0.1-0.1,0.3-0.2,0.4-0.3c0.1-0.1,0.3-0.2,0.4-0.3c0.1-0.1,0.3-0.2,0.4-0.3c0.1-0.1,0.3-0.2,0.4-0.3c0.1,0,0.1-0.1,0.2-0.1
						c0,0,0.1-0.1,0.1-0.1c0.2-0.2,0.4-0.4,0.6-0.6c0.1-0.1,0.1-0.1,0.2-0.2c0.2-0.3,0.5-0.5,0.7-0.8c0,0,0,0,0,0
						c0.1-0.1,0.1-0.1,0.1-0.2c0.1-0.2,0.3-0.3,0.4-0.5c0.1-0.1,0.1-0.2,0.2-0.3c0.1-0.2,0.2-0.3,0.3-0.5c0,0,0.1-0.1,0.1-0.1
						c0-0.1,0.1-0.1,0.1-0.2c0.1-0.1,0.1-0.3,0.2-0.4c0.1-0.1,0.1-0.2,0.2-0.3c0.1-0.1,0.1-0.3,0.2-0.4c0-0.1,0.1-0.1,0.1-0.2
						c0-0.1,0-0.1,0.1-0.2c0-0.1,0.1-0.3,0.1-0.4c0-0.1,0.1-0.2,0.1-0.4c0-0.1,0.1-0.3,0.1-0.4c0-0.1,0-0.1,0.1-0.2c0,0,0-0.1,0-0.1
						c0-0.1,0-0.3,0.1-0.4c0-0.1,0-0.2,0-0.4c0-0.1,0-0.3,0-0.4c0-0.1,0-0.2,0-0.2c0-0.1,0-0.2,0-0.2l0-7.6
						C676.2,975.1,676.2,975.2,676.2,975.4z"/>
					<g>
						<path fill="#FDD400" d="M668.2,963.8c10.6,6.1,10.6,16,0.1,22.2c-10.5,6.1-27.7,6.1-38.3,0c-10.6-6.1-10.7-16-0.1-22.2
							C640.5,957.6,657.6,957.6,668.2,963.8z"/>
					</g>
					<g>
						<path fill="#EC8659" d="M658,973.2c2.3,1.3,2.7,3.4,0.2,5.5l2.7,1.5l-2.6,1.5l-2.5-1.4c-1.8,1-4,1.7-5.5,1.9L648,980
							c1.7-0.3,3.7-0.9,5.4-1.8c1.5-0.9,1.9-1.8,0.9-2.4c-1-0.6-2.5-0.5-5,0.3c-3.7,1.1-6.9,1.4-9.5,0c-2.3-1.3-2.5-3.3-0.3-5.2
							l-2.5-1.4l2.6-1.5l2.3,1.3c1.8-1,3.4-1.4,4.6-1.7l2.2,2.2c-1,0.2-2.8,0.6-4.6,1.7c-1.7,1-1.5,1.7-0.8,2.1
							c0.9,0.5,2.3,0.3,5.4-0.5C653,971.8,655.6,971.9,658,973.2z"/>
					</g>
				</g>
			</g>
			<g>
				<g>
					<path fill="#EFC100" d="M691.2,967.1c0,0.1,0,0.3,0,0.4c0,0.1,0,0.2,0,0.4c0,0.1,0,0.3-0.1,0.4c0,0.1,0,0.2-0.1,0.4
						c0,0.1-0.1,0.3-0.1,0.4c0,0.1-0.1,0.2-0.1,0.4c0,0.1-0.1,0.3-0.1,0.4c0,0.1-0.1,0.2-0.1,0.3c-0.1,0.1-0.1,0.3-0.2,0.4
						c-0.1,0.1-0.1,0.2-0.2,0.3c-0.1,0.1-0.1,0.3-0.2,0.4c-0.1,0.1-0.1,0.2-0.2,0.3c-0.1,0.2-0.2,0.3-0.3,0.5
						c-0.1,0.1-0.1,0.2-0.2,0.3c-0.1,0.2-0.2,0.3-0.4,0.5c-0.1,0.1-0.1,0.2-0.2,0.2c-0.2,0.3-0.5,0.5-0.7,0.8
						c-0.1,0.1-0.1,0.1-0.2,0.2c-0.2,0.2-0.4,0.4-0.6,0.6c-0.1,0.1-0.2,0.2-0.3,0.3c-0.1,0.1-0.3,0.2-0.4,0.3
						c-0.1,0.1-0.2,0.2-0.4,0.3c-0.1,0.1-0.3,0.2-0.4,0.3c-0.1,0.1-0.3,0.2-0.4,0.3c-0.1,0.1-0.3,0.2-0.5,0.3
						c-0.1,0.1-0.3,0.2-0.4,0.3c-0.2,0.1-0.3,0.2-0.5,0.3c-0.2,0.1-0.4,0.3-0.6,0.4c-0.6,0.3-1.2,0.7-1.8,1
						c-0.2,0.1-0.3,0.2-0.5,0.2c-0.6,0.3-1.1,0.5-1.7,0.7c-0.1,0-0.2,0.1-0.2,0.1c-0.6,0.2-1.3,0.5-1.9,0.7
						c-0.5,0.1-0.9,0.3-1.4,0.4c-0.4,0.1-0.7,0.2-1.1,0.3c-0.5,0.1-1,0.2-1.5,0.3c-0.4,0.1-0.7,0.2-1.1,0.2c-0.2,0-0.3,0-0.5,0.1
						c-0.6,0.1-1.2,0.2-1.9,0.3c-0.2,0-0.4,0-0.6,0.1c-0.4,0-0.7,0.1-1.1,0.1c-0.6,0.1-1.2,0.1-1.8,0.1c-0.4,0-0.8,0-1.2,0
						c-0.5,0-1,0-1.5,0c-0.4,0-0.8,0-1.2,0c-0.5,0-0.9,0-1.4-0.1c-0.4,0-0.8-0.1-1.3-0.1c-0.5,0-0.9-0.1-1.3-0.2
						c-0.4-0.1-0.8-0.1-1.2-0.2c-0.5-0.1-1-0.2-1.4-0.2c-0.4-0.1-0.8-0.1-1.1-0.2c-0.6-0.1-1.1-0.3-1.7-0.4
						c-0.4-0.1-0.7-0.2-1.1-0.3c-0.2-0.1-0.4-0.1-0.6-0.2c-0.6-0.2-1.1-0.4-1.6-0.6c-0.2-0.1-0.3-0.1-0.5-0.2
						c-0.5-0.2-1-0.4-1.4-0.6c-0.2-0.1-0.5-0.2-0.7-0.3c-0.7-0.3-1.3-0.7-2-1c-3.7-2.1-6.1-4.7-7.2-7.4c-0.5-1.2-0.8-2.5-0.8-3.8
						l0,7.6c0,4,2.7,8.1,8,11.2c0.6,0.4,1.3,0.7,2,1c0.2,0.1,0.5,0.2,0.7,0.3c0.4,0.2,0.8,0.4,1.2,0.5c0.1,0,0.1,0.1,0.2,0.1
						c0.2,0.1,0.3,0.1,0.5,0.2c0.5,0.2,1.1,0.4,1.6,0.6c0.2,0.1,0.4,0.1,0.6,0.2c0.1,0,0.3,0.1,0.4,0.1c0.2,0.1,0.5,0.1,0.7,0.2
						c0.6,0.1,1.1,0.3,1.7,0.4c0.2,0,0.3,0.1,0.4,0.1c0.2,0,0.5,0.1,0.7,0.1c0.5,0.1,1,0.2,1.4,0.2c0.2,0,0.4,0.1,0.6,0.1
						c0.2,0,0.4,0,0.6,0.1c0.4,0.1,0.9,0.1,1.3,0.2c0.2,0,0.4,0.1,0.6,0.1c0.2,0,0.4,0,0.6,0c0.5,0,0.9,0.1,1.4,0.1
						c0.2,0,0.5,0,0.7,0c0.2,0,0.4,0,0.6,0c0.5,0,1,0,1.5,0c0.2,0,0.5,0,0.7,0c0.1,0,0.3,0,0.4,0c0.6,0,1.2-0.1,1.8-0.1
						c0.2,0,0.5,0,0.7,0c0.1,0,0.2,0,0.4,0c0.2,0,0.4,0,0.5-0.1c0.6-0.1,1.3-0.2,1.9-0.3c0.2,0,0.3,0,0.5-0.1c0.1,0,0.1,0,0.2,0
						c0.3-0.1,0.6-0.1,0.9-0.2c0.5-0.1,1-0.2,1.5-0.3c0.4-0.1,0.7-0.2,1.1-0.3c0.5-0.1,0.9-0.3,1.4-0.4c0.1,0,0.2-0.1,0.3-0.1
						c0.6-0.2,1.1-0.4,1.6-0.6c0.1,0,0.2-0.1,0.2-0.1c0.6-0.2,1.2-0.5,1.7-0.7c0.2-0.1,0.3-0.2,0.5-0.2c0.6-0.3,1.2-0.6,1.8-1
						c0.1-0.1,0.2-0.1,0.3-0.2c0.1-0.1,0.2-0.1,0.3-0.2c0.2-0.1,0.3-0.2,0.5-0.3c0.1-0.1,0.3-0.2,0.4-0.3c0.2-0.1,0.3-0.2,0.5-0.3
						c0.1-0.1,0.3-0.2,0.4-0.3c0.1-0.1,0.3-0.2,0.4-0.3c0.1-0.1,0.3-0.2,0.4-0.3c0.1-0.1,0.3-0.2,0.4-0.3c0.1,0,0.1-0.1,0.2-0.1
						c0,0,0.1-0.1,0.1-0.1c0.2-0.2,0.4-0.4,0.6-0.6c0.1-0.1,0.1-0.1,0.2-0.2c0.2-0.3,0.5-0.5,0.7-0.8c0,0,0,0,0,0
						c0.1-0.1,0.1-0.1,0.1-0.2c0.1-0.2,0.3-0.3,0.4-0.5c0.1-0.1,0.1-0.2,0.2-0.3c0.1-0.2,0.2-0.3,0.3-0.5c0,0,0.1-0.1,0.1-0.1
						c0-0.1,0.1-0.1,0.1-0.2c0.1-0.1,0.1-0.3,0.2-0.4c0.1-0.1,0.1-0.2,0.2-0.3c0.1-0.1,0.1-0.3,0.2-0.4c0-0.1,0.1-0.1,0.1-0.2
						c0-0.1,0-0.1,0.1-0.2c0-0.1,0.1-0.3,0.1-0.4c0-0.1,0.1-0.2,0.1-0.4c0-0.1,0.1-0.3,0.1-0.4c0-0.1,0-0.1,0.1-0.2c0,0,0-0.1,0-0.1
						c0-0.1,0-0.3,0.1-0.4c0-0.1,0-0.2,0-0.4c0-0.1,0-0.3,0-0.4c0-0.1,0-0.2,0-0.2c0-0.1,0-0.2,0-0.2l0-7.6
						C691.2,966.8,691.2,966.9,691.2,967.1z"/>
					<g>
						<path fill="#FDD400" d="M683.3,955.5c10.6,6.1,10.6,16,0.1,22.2c-10.5,6.1-27.7,6.1-38.3,0c-10.6-6.1-10.7-16-0.1-22.2
							C655.5,949.4,672.7,949.4,683.3,955.5z"/>
					</g>
					<g>
						<path fill="#EC8659" d="M673,964.9c2.3,1.3,2.7,3.4,0.2,5.5l2.7,1.5l-2.6,1.5l-2.5-1.4c-1.8,1-4,1.7-5.5,1.9l-2.3-2.2
							c1.7-0.3,3.7-0.9,5.4-1.8c1.5-0.9,1.9-1.8,0.9-2.4c-1-0.6-2.5-0.5-5,0.3c-3.7,1.1-6.9,1.4-9.5,0c-2.3-1.3-2.5-3.3-0.3-5.2
							l-2.5-1.4l2.6-1.5l2.3,1.3c1.8-1,3.4-1.4,4.6-1.7l2.2,2.2c-1,0.2-2.8,0.6-4.6,1.7c-1.7,1-1.5,1.7-0.8,2.1
							c0.9,0.5,2.3,0.3,5.4-0.5C668,963.5,670.7,963.6,673,964.9z"/>
					</g>
				</g>
			</g>
			<g>
				<g>
					<path fill="#EFC100" d="M683.6,956.6c0,0.1,0,0.3,0,0.4c0,0.1,0,0.2,0,0.4c0,0.1,0,0.3-0.1,0.4c0,0.1,0,0.2-0.1,0.4
						c0,0.1-0.1,0.3-0.1,0.4c0,0.1-0.1,0.2-0.1,0.4c0,0.1-0.1,0.3-0.1,0.4c0,0.1-0.1,0.2-0.1,0.3c-0.1,0.1-0.1,0.3-0.2,0.4
						c-0.1,0.1-0.1,0.2-0.2,0.3c-0.1,0.1-0.1,0.3-0.2,0.4c-0.1,0.1-0.1,0.2-0.2,0.3c-0.1,0.2-0.2,0.3-0.3,0.5
						c-0.1,0.1-0.1,0.2-0.2,0.3c-0.1,0.2-0.2,0.3-0.4,0.5c-0.1,0.1-0.1,0.2-0.2,0.2c-0.2,0.3-0.5,0.5-0.7,0.8
						c-0.1,0.1-0.1,0.1-0.2,0.2c-0.2,0.2-0.4,0.4-0.6,0.6c-0.1,0.1-0.2,0.2-0.3,0.3c-0.1,0.1-0.3,0.2-0.4,0.3
						c-0.1,0.1-0.2,0.2-0.4,0.3c-0.1,0.1-0.3,0.2-0.4,0.3c-0.1,0.1-0.3,0.2-0.4,0.3c-0.1,0.1-0.3,0.2-0.5,0.3
						c-0.1,0.1-0.3,0.2-0.4,0.3c-0.2,0.1-0.3,0.2-0.5,0.3c-0.2,0.1-0.4,0.3-0.6,0.4c-0.6,0.3-1.2,0.7-1.8,1
						c-0.2,0.1-0.3,0.2-0.5,0.2c-0.6,0.3-1.1,0.5-1.7,0.7c-0.1,0-0.2,0.1-0.2,0.1c-0.6,0.2-1.3,0.5-1.9,0.7
						c-0.5,0.1-0.9,0.3-1.4,0.4c-0.4,0.1-0.7,0.2-1.1,0.3c-0.5,0.1-1,0.2-1.5,0.3c-0.4,0.1-0.7,0.2-1.1,0.2c-0.2,0-0.3,0-0.5,0.1
						c-0.6,0.1-1.2,0.2-1.9,0.3c-0.2,0-0.4,0-0.6,0.1c-0.4,0-0.7,0.1-1.1,0.1c-0.6,0.1-1.2,0.1-1.8,0.1c-0.4,0-0.8,0-1.2,0
						c-0.5,0-1,0-1.5,0c-0.4,0-0.8,0-1.2,0c-0.5,0-0.9,0-1.4-0.1c-0.4,0-0.8-0.1-1.3-0.1c-0.5,0-0.9-0.1-1.3-0.2
						c-0.4-0.1-0.8-0.1-1.2-0.2c-0.5-0.1-1-0.2-1.4-0.2c-0.4-0.1-0.8-0.1-1.1-0.2c-0.6-0.1-1.1-0.3-1.7-0.4
						c-0.4-0.1-0.7-0.2-1.1-0.3c-0.2-0.1-0.4-0.1-0.6-0.2c-0.6-0.2-1.1-0.4-1.6-0.6c-0.2-0.1-0.3-0.1-0.5-0.2
						c-0.5-0.2-1-0.4-1.4-0.6c-0.2-0.1-0.5-0.2-0.7-0.3c-0.7-0.3-1.3-0.7-2-1c-3.7-2.1-6.1-4.7-7.2-7.4c-0.5-1.2-0.8-2.5-0.8-3.8
						l0,7.6c0,4,2.7,8.1,8,11.2c0.6,0.4,1.3,0.7,2,1c0.2,0.1,0.5,0.2,0.7,0.3c0.4,0.2,0.8,0.4,1.2,0.5c0.1,0,0.1,0.1,0.2,0.1
						c0.2,0.1,0.3,0.1,0.5,0.2c0.5,0.2,1.1,0.4,1.6,0.6c0.2,0.1,0.4,0.1,0.6,0.2c0.1,0,0.3,0.1,0.4,0.1c0.2,0.1,0.5,0.1,0.7,0.2
						c0.6,0.1,1.1,0.3,1.7,0.4c0.2,0,0.3,0.1,0.4,0.1c0.2,0,0.5,0.1,0.7,0.1c0.5,0.1,1,0.2,1.4,0.2c0.2,0,0.4,0.1,0.6,0.1
						c0.2,0,0.4,0,0.6,0.1c0.4,0.1,0.9,0.1,1.3,0.2c0.2,0,0.4,0.1,0.6,0.1c0.2,0,0.4,0,0.6,0c0.5,0,0.9,0.1,1.4,0.1
						c0.2,0,0.5,0,0.7,0c0.2,0,0.4,0,0.6,0c0.5,0,1,0,1.5,0c0.2,0,0.5,0,0.7,0c0.1,0,0.3,0,0.4,0c0.6,0,1.2-0.1,1.8-0.1
						c0.2,0,0.5,0,0.7,0c0.1,0,0.2,0,0.4,0c0.2,0,0.4,0,0.5-0.1c0.6-0.1,1.3-0.2,1.9-0.3c0.2,0,0.3,0,0.5-0.1c0.1,0,0.1,0,0.2,0
						c0.3-0.1,0.6-0.1,0.9-0.2c0.5-0.1,1-0.2,1.5-0.3c0.4-0.1,0.7-0.2,1.1-0.3c0.5-0.1,0.9-0.3,1.4-0.4c0.1,0,0.2-0.1,0.3-0.1
						c0.6-0.2,1.1-0.4,1.6-0.6c0.1,0,0.2-0.1,0.2-0.1c0.6-0.2,1.2-0.5,1.7-0.7c0.2-0.1,0.3-0.2,0.5-0.2c0.6-0.3,1.2-0.6,1.8-1
						c0.1-0.1,0.2-0.1,0.3-0.2c0.1-0.1,0.2-0.1,0.3-0.2c0.2-0.1,0.3-0.2,0.5-0.3c0.1-0.1,0.3-0.2,0.4-0.3c0.2-0.1,0.3-0.2,0.5-0.3
						c0.1-0.1,0.3-0.2,0.4-0.3c0.1-0.1,0.3-0.2,0.4-0.3c0.1-0.1,0.3-0.2,0.4-0.3c0.1-0.1,0.3-0.2,0.4-0.3c0.1,0,0.1-0.1,0.2-0.1
						c0,0,0.1-0.1,0.1-0.1c0.2-0.2,0.4-0.4,0.6-0.6c0.1-0.1,0.1-0.1,0.2-0.2c0.2-0.3,0.5-0.5,0.7-0.8c0,0,0,0,0,0
						c0.1-0.1,0.1-0.1,0.1-0.2c0.1-0.2,0.3-0.3,0.4-0.5c0.1-0.1,0.1-0.2,0.2-0.3c0.1-0.2,0.2-0.3,0.3-0.5c0,0,0.1-0.1,0.1-0.1
						c0-0.1,0.1-0.1,0.1-0.2c0.1-0.1,0.1-0.3,0.2-0.4c0.1-0.1,0.1-0.2,0.2-0.3c0.1-0.1,0.1-0.3,0.2-0.4c0-0.1,0.1-0.1,0.1-0.2
						c0-0.1,0-0.1,0.1-0.2c0-0.1,0.1-0.3,0.1-0.4c0-0.1,0.1-0.2,0.1-0.4c0-0.1,0.1-0.3,0.1-0.4c0-0.1,0-0.1,0.1-0.2c0,0,0-0.1,0-0.1
						c0-0.1,0-0.3,0.1-0.4c0-0.1,0-0.2,0-0.4c0-0.1,0-0.3,0-0.4c0-0.1,0-0.2,0-0.2c0-0.1,0-0.2,0-0.2l0-7.6
						C683.6,956.3,683.6,956.4,683.6,956.6z"/>
					<g>
						<path fill="#FDD400" d="M675.6,944.9c10.6,6.1,10.6,16,0.1,22.2c-10.5,6.1-27.7,6.1-38.3,0c-10.6-6.1-10.7-16-0.1-22.2
							C647.9,938.8,665,938.8,675.6,944.9z"/>
					</g>
					<g>
						<path fill="#EC8659" d="M665.4,954.4c2.3,1.3,2.7,3.4,0.2,5.5l2.7,1.5l-2.6,1.5l-2.5-1.4c-1.8,1-4,1.7-5.5,1.9l-2.3-2.2
							c1.7-0.3,3.7-0.9,5.4-1.8c1.5-0.9,1.9-1.8,0.9-2.4c-1-0.6-2.5-0.5-5,0.3c-3.7,1.1-6.9,1.4-9.5,0c-2.3-1.3-2.5-3.3-0.3-5.2
							l-2.5-1.4l2.6-1.5l2.3,1.3c1.8-1,3.4-1.4,4.6-1.7l2.2,2.2c-1,0.2-2.8,0.6-4.6,1.7c-1.7,1-1.5,1.7-0.8,2.1
							c0.9,0.5,2.3,0.3,5.4-0.5C660.3,952.9,663,953,665.4,954.4z"/>
					</g>
				</g>
			</g>
			<g>
				<g>
					<path fill="#EFC100" d="M752.9,1019.9c0,0.1,0,0.3,0,0.4c0,0.1,0,0.2,0,0.4c0,0.1,0,0.3-0.1,0.4c0,0.1,0,0.2-0.1,0.4
						c0,0.1-0.1,0.3-0.1,0.4c0,0.1-0.1,0.2-0.1,0.4c0,0.1-0.1,0.3-0.1,0.4c0,0.1-0.1,0.2-0.1,0.3c-0.1,0.1-0.1,0.3-0.2,0.4
						c-0.1,0.1-0.1,0.2-0.2,0.3c-0.1,0.1-0.1,0.3-0.2,0.4c-0.1,0.1-0.1,0.2-0.2,0.3c-0.1,0.2-0.2,0.3-0.3,0.5
						c-0.1,0.1-0.1,0.2-0.2,0.3c-0.1,0.2-0.2,0.3-0.4,0.5c-0.1,0.1-0.1,0.2-0.2,0.2c-0.2,0.3-0.5,0.5-0.7,0.8
						c-0.1,0.1-0.1,0.1-0.2,0.2c-0.2,0.2-0.4,0.4-0.6,0.6c-0.1,0.1-0.2,0.2-0.3,0.3c-0.1,0.1-0.3,0.2-0.4,0.3
						c-0.1,0.1-0.2,0.2-0.4,0.3c-0.1,0.1-0.3,0.2-0.4,0.3c-0.1,0.1-0.3,0.2-0.4,0.3c-0.1,0.1-0.3,0.2-0.5,0.3
						c-0.1,0.1-0.3,0.2-0.4,0.3c-0.2,0.1-0.3,0.2-0.5,0.3c-0.2,0.1-0.4,0.3-0.6,0.4c-0.6,0.3-1.2,0.7-1.8,1
						c-0.2,0.1-0.3,0.2-0.5,0.2c-0.6,0.3-1.1,0.5-1.7,0.7c-0.1,0-0.2,0.1-0.2,0.1c-0.6,0.2-1.3,0.5-1.9,0.7
						c-0.5,0.1-0.9,0.3-1.4,0.4c-0.4,0.1-0.7,0.2-1.1,0.3c-0.5,0.1-1,0.2-1.5,0.3c-0.4,0.1-0.7,0.2-1.1,0.2c-0.2,0-0.3,0-0.5,0.1
						c-0.6,0.1-1.2,0.2-1.9,0.3c-0.2,0-0.4,0-0.6,0.1c-0.4,0-0.7,0.1-1.1,0.1c-0.6,0.1-1.2,0.1-1.8,0.1c-0.4,0-0.8,0-1.2,0
						c-0.5,0-1,0-1.5,0c-0.4,0-0.8,0-1.2,0c-0.5,0-0.9,0-1.4-0.1c-0.4,0-0.8-0.1-1.3-0.1c-0.5,0-0.9-0.1-1.3-0.2
						c-0.4-0.1-0.8-0.1-1.2-0.2c-0.5-0.1-1-0.2-1.4-0.2c-0.4-0.1-0.8-0.1-1.1-0.2c-0.6-0.1-1.1-0.3-1.7-0.4
						c-0.4-0.1-0.7-0.2-1.1-0.3c-0.2-0.1-0.4-0.1-0.6-0.2c-0.6-0.2-1.1-0.4-1.6-0.6c-0.2-0.1-0.3-0.1-0.5-0.2
						c-0.5-0.2-1-0.4-1.4-0.6c-0.2-0.1-0.5-0.2-0.7-0.3c-0.7-0.3-1.3-0.7-2-1c-3.7-2.1-6.1-4.7-7.2-7.4c-0.5-1.2-0.8-2.5-0.8-3.8
						l0,7.6c0,4,2.7,8.1,8,11.2c0.6,0.4,1.3,0.7,2,1c0.2,0.1,0.5,0.2,0.7,0.3c0.4,0.2,0.8,0.4,1.2,0.5c0.1,0,0.1,0.1,0.2,0.1
						c0.2,0.1,0.3,0.1,0.5,0.2c0.5,0.2,1.1,0.4,1.6,0.6c0.2,0.1,0.4,0.1,0.6,0.2c0.1,0,0.3,0.1,0.4,0.1c0.2,0.1,0.5,0.1,0.7,0.2
						c0.6,0.1,1.1,0.3,1.7,0.4c0.2,0,0.3,0.1,0.4,0.1c0.2,0,0.5,0.1,0.7,0.1c0.5,0.1,1,0.2,1.4,0.2c0.2,0,0.4,0.1,0.6,0.1
						c0.2,0,0.4,0,0.6,0.1c0.4,0.1,0.9,0.1,1.3,0.2c0.2,0,0.4,0.1,0.6,0.1c0.2,0,0.4,0,0.6,0c0.5,0,0.9,0.1,1.4,0.1
						c0.2,0,0.5,0,0.7,0c0.2,0,0.4,0,0.6,0c0.5,0,1,0,1.5,0c0.2,0,0.5,0,0.7,0c0.1,0,0.3,0,0.4,0c0.6,0,1.2-0.1,1.8-0.1
						c0.2,0,0.5,0,0.7,0c0.1,0,0.2,0,0.4,0c0.2,0,0.4,0,0.5-0.1c0.6-0.1,1.3-0.2,1.9-0.3c0.2,0,0.3,0,0.5-0.1c0.1,0,0.1,0,0.2,0
						c0.3-0.1,0.6-0.1,0.9-0.2c0.5-0.1,1-0.2,1.5-0.3c0.4-0.1,0.7-0.2,1.1-0.3c0.5-0.1,0.9-0.3,1.4-0.4c0.1,0,0.2-0.1,0.3-0.1
						c0.6-0.2,1.1-0.4,1.6-0.6c0.1,0,0.2-0.1,0.2-0.1c0.6-0.2,1.2-0.5,1.7-0.7c0.2-0.1,0.3-0.2,0.5-0.2c0.6-0.3,1.2-0.6,1.8-1
						c0.1-0.1,0.2-0.1,0.3-0.2c0.1-0.1,0.2-0.1,0.3-0.2c0.2-0.1,0.3-0.2,0.5-0.3c0.1-0.1,0.3-0.2,0.4-0.3c0.2-0.1,0.3-0.2,0.5-0.3
						c0.1-0.1,0.3-0.2,0.4-0.3c0.1-0.1,0.3-0.2,0.4-0.3c0.1-0.1,0.3-0.2,0.4-0.3c0.1-0.1,0.3-0.2,0.4-0.3c0.1,0,0.1-0.1,0.2-0.1
						c0,0,0.1-0.1,0.1-0.1c0.2-0.2,0.4-0.4,0.6-0.6c0.1-0.1,0.1-0.1,0.2-0.2c0.2-0.3,0.5-0.5,0.7-0.8c0,0,0,0,0,0
						c0.1-0.1,0.1-0.1,0.1-0.2c0.1-0.2,0.3-0.3,0.4-0.5c0.1-0.1,0.1-0.2,0.2-0.3c0.1-0.2,0.2-0.3,0.3-0.5c0,0,0.1-0.1,0.1-0.1
						c0-0.1,0.1-0.1,0.1-0.2c0.1-0.1,0.1-0.3,0.2-0.4c0.1-0.1,0.1-0.2,0.2-0.3c0.1-0.1,0.1-0.3,0.2-0.4c0-0.1,0.1-0.1,0.1-0.2
						c0-0.1,0-0.1,0.1-0.2c0-0.1,0.1-0.3,0.1-0.4c0-0.1,0.1-0.2,0.1-0.4c0-0.1,0.1-0.3,0.1-0.4c0-0.1,0-0.1,0.1-0.2c0,0,0-0.1,0-0.1
						c0-0.1,0-0.3,0.1-0.4c0-0.1,0-0.2,0-0.4c0-0.1,0-0.3,0-0.4c0-0.1,0-0.2,0-0.2c0-0.1,0-0.2,0-0.2l0-7.6
						C752.9,1019.6,752.9,1019.7,752.9,1019.9z"/>
					<g>
						<path fill="#FDD400" d="M744.9,1008.3c10.6,6.1,10.6,16,0.1,22.2s-27.7,6.1-38.3,0c-10.6-6.1-10.7-16-0.1-22.2
							C717.2,1002.2,734.3,1002.2,744.9,1008.3z"/>
					</g>
					<g>
						<path fill="#EC8659" d="M734.7,1017.7c2.3,1.3,2.7,3.4,0.2,5.5l2.7,1.5l-2.6,1.5l-2.5-1.4c-1.8,1-4,1.7-5.5,1.9l-2.3-2.2
							c1.7-0.3,3.7-0.9,5.4-1.8c1.5-0.9,1.9-1.8,0.9-2.4c-1-0.6-2.5-0.5-5,0.3c-3.7,1.1-6.9,1.4-9.5,0c-2.3-1.3-2.5-3.3-0.3-5.2
							l-2.5-1.4l2.6-1.5l2.3,1.3c1.8-1,3.4-1.4,4.6-1.7l2.2,2.2c-1,0.2-2.8,0.6-4.6,1.7c-1.7,1-1.5,1.7-0.8,2.1
							c0.9,0.5,2.3,0.3,5.4-0.5C729.6,1016.3,732.3,1016.4,734.7,1017.7z"/>
					</g>
				</g>
			</g>
			<g>
				<g>
					<path fill="#EFC100" d="M710.6,1051.7c0,0.1,0,0.3,0,0.4c0,0.1,0,0.2,0,0.4c0,0.1,0,0.3-0.1,0.4c0,0.1,0,0.2-0.1,0.4
						c0,0.1-0.1,0.3-0.1,0.4c0,0.1-0.1,0.2-0.1,0.4c0,0.1-0.1,0.3-0.1,0.4c0,0.1-0.1,0.2-0.1,0.3c-0.1,0.1-0.1,0.3-0.2,0.4
						c-0.1,0.1-0.1,0.2-0.2,0.3c-0.1,0.1-0.1,0.3-0.2,0.4c-0.1,0.1-0.1,0.2-0.2,0.3c-0.1,0.2-0.2,0.3-0.3,0.5
						c-0.1,0.1-0.1,0.2-0.2,0.3c-0.1,0.2-0.2,0.3-0.4,0.5c-0.1,0.1-0.1,0.2-0.2,0.2c-0.2,0.3-0.5,0.5-0.7,0.8
						c-0.1,0.1-0.1,0.1-0.2,0.2c-0.2,0.2-0.4,0.4-0.6,0.6c-0.1,0.1-0.2,0.2-0.3,0.3c-0.1,0.1-0.3,0.2-0.4,0.3
						c-0.1,0.1-0.2,0.2-0.4,0.3c-0.1,0.1-0.3,0.2-0.4,0.3c-0.1,0.1-0.3,0.2-0.4,0.3c-0.1,0.1-0.3,0.2-0.5,0.3
						c-0.1,0.1-0.3,0.2-0.4,0.3c-0.2,0.1-0.3,0.2-0.5,0.3c-0.2,0.1-0.4,0.3-0.6,0.4c-0.6,0.3-1.2,0.7-1.8,1
						c-0.2,0.1-0.3,0.2-0.5,0.2c-0.6,0.3-1.1,0.5-1.7,0.7c-0.1,0-0.2,0.1-0.2,0.1c-0.6,0.2-1.3,0.5-1.9,0.7
						c-0.5,0.1-0.9,0.3-1.4,0.4c-0.4,0.1-0.7,0.2-1.1,0.3c-0.5,0.1-1,0.2-1.5,0.3c-0.4,0.1-0.7,0.2-1.1,0.2c-0.2,0-0.3,0-0.5,0.1
						c-0.6,0.1-1.2,0.2-1.9,0.3c-0.2,0-0.4,0-0.6,0.1c-0.4,0-0.7,0.1-1.1,0.1c-0.6,0.1-1.2,0.1-1.8,0.1c-0.4,0-0.8,0-1.2,0
						c-0.5,0-1,0-1.5,0c-0.4,0-0.8,0-1.2,0c-0.5,0-0.9,0-1.4-0.1c-0.4,0-0.8-0.1-1.3-0.1c-0.5,0-0.9-0.1-1.3-0.2
						c-0.4-0.1-0.8-0.1-1.2-0.2c-0.5-0.1-1-0.2-1.4-0.2c-0.4-0.1-0.8-0.1-1.1-0.2c-0.6-0.1-1.1-0.3-1.7-0.4
						c-0.4-0.1-0.7-0.2-1.1-0.3c-0.2-0.1-0.4-0.1-0.6-0.2c-0.6-0.2-1.1-0.4-1.6-0.6c-0.2-0.1-0.3-0.1-0.5-0.2
						c-0.5-0.2-1-0.4-1.4-0.6c-0.2-0.1-0.5-0.2-0.7-0.3c-0.7-0.3-1.3-0.7-2-1c-3.7-2.1-6.1-4.7-7.2-7.4c-0.5-1.2-0.8-2.5-0.8-3.8
						l0,7.6c0,4,2.7,8.1,8,11.2c0.6,0.4,1.3,0.7,2,1c0.2,0.1,0.5,0.2,0.7,0.3c0.4,0.2,0.8,0.4,1.2,0.5c0.1,0,0.1,0.1,0.2,0.1
						c0.2,0.1,0.3,0.1,0.5,0.2c0.5,0.2,1.1,0.4,1.6,0.6c0.2,0.1,0.4,0.1,0.6,0.2c0.1,0,0.3,0.1,0.4,0.1c0.2,0.1,0.5,0.1,0.7,0.2
						c0.6,0.1,1.1,0.3,1.7,0.4c0.2,0,0.3,0.1,0.4,0.1c0.2,0,0.5,0.1,0.7,0.1c0.5,0.1,1,0.2,1.4,0.2c0.2,0,0.4,0.1,0.6,0.1
						c0.2,0,0.4,0,0.6,0.1c0.4,0.1,0.9,0.1,1.3,0.2c0.2,0,0.4,0.1,0.6,0.1c0.2,0,0.4,0,0.6,0c0.5,0,0.9,0.1,1.4,0.1
						c0.2,0,0.5,0,0.7,0c0.2,0,0.4,0,0.6,0c0.5,0,1,0,1.5,0c0.2,0,0.5,0,0.7,0c0.1,0,0.3,0,0.4,0c0.6,0,1.2-0.1,1.8-0.1
						c0.2,0,0.5,0,0.7,0c0.1,0,0.2,0,0.4,0c0.2,0,0.4,0,0.5-0.1c0.6-0.1,1.3-0.2,1.9-0.3c0.2,0,0.3,0,0.5-0.1c0.1,0,0.1,0,0.2,0
						c0.3-0.1,0.6-0.1,0.9-0.2c0.5-0.1,1-0.2,1.5-0.3c0.4-0.1,0.7-0.2,1.1-0.3c0.5-0.1,0.9-0.3,1.4-0.4c0.1,0,0.2-0.1,0.3-0.1
						c0.6-0.2,1.1-0.4,1.6-0.6c0.1,0,0.2-0.1,0.2-0.1c0.6-0.2,1.2-0.5,1.7-0.7c0.2-0.1,0.3-0.2,0.5-0.2c0.6-0.3,1.2-0.6,1.8-1
						c0.1-0.1,0.2-0.1,0.3-0.2c0.1-0.1,0.2-0.1,0.3-0.2c0.2-0.1,0.3-0.2,0.5-0.3c0.1-0.1,0.3-0.2,0.4-0.3c0.2-0.1,0.3-0.2,0.5-0.3
						c0.1-0.1,0.3-0.2,0.4-0.3c0.1-0.1,0.3-0.2,0.4-0.3c0.1-0.1,0.3-0.2,0.4-0.3c0.1-0.1,0.3-0.2,0.4-0.3c0.1,0,0.1-0.1,0.2-0.1
						c0,0,0.1-0.1,0.1-0.1c0.2-0.2,0.4-0.4,0.6-0.6c0.1-0.1,0.1-0.1,0.2-0.2c0.2-0.3,0.5-0.5,0.7-0.8c0,0,0,0,0,0
						c0.1-0.1,0.1-0.1,0.1-0.2c0.1-0.2,0.3-0.3,0.4-0.5c0.1-0.1,0.1-0.2,0.2-0.3c0.1-0.2,0.2-0.3,0.3-0.5c0,0,0.1-0.1,0.1-0.1
						c0-0.1,0.1-0.1,0.1-0.2c0.1-0.1,0.1-0.3,0.2-0.4c0.1-0.1,0.1-0.2,0.2-0.3c0.1-0.1,0.1-0.3,0.2-0.4c0-0.1,0.1-0.1,0.1-0.2
						c0-0.1,0-0.1,0.1-0.2c0-0.1,0.1-0.3,0.1-0.4c0-0.1,0.1-0.2,0.1-0.4c0-0.1,0.1-0.3,0.1-0.4c0-0.1,0-0.1,0.1-0.2c0,0,0-0.1,0-0.1
						c0-0.1,0-0.3,0.1-0.4c0-0.1,0-0.2,0-0.4c0-0.1,0-0.3,0-0.4c0-0.1,0-0.2,0-0.2c0-0.1,0-0.2,0-0.2l0-7.6
						C710.6,1051.4,710.6,1051.5,710.6,1051.7z"/>
					<g>
						<path fill="#FDD400" d="M702.6,1040c10.6,6.1,10.6,16,0.1,22.2s-27.7,6.1-38.3,0c-10.6-6.1-10.7-16-0.1-22.2
							C674.9,1033.9,692,1033.9,702.6,1040z"/>
					</g>
					<g>
						<path fill="#EC8659" d="M692.4,1049.5c2.3,1.3,2.7,3.4,0.2,5.5l2.7,1.5l-2.6,1.5l-2.5-1.4c-1.8,1-4,1.7-5.5,1.9l-2.3-2.2
							c1.7-0.3,3.7-0.9,5.4-1.8c1.5-0.9,1.9-1.8,0.9-2.4c-1-0.6-2.5-0.5-5,0.3c-3.7,1.1-6.9,1.4-9.5,0c-2.3-1.3-2.5-3.3-0.3-5.2
							l-2.5-1.4l2.6-1.5l2.3,1.3c1.8-1,3.4-1.4,4.6-1.7l2.2,2.2c-1,0.2-2.8,0.6-4.6,1.7c-1.7,1-1.5,1.7-0.8,2.1
							c0.9,0.5,2.3,0.3,5.4-0.5C687.4,1048,690.1,1048.1,692.4,1049.5z"/>
					</g>
				</g>
			</g>
			<g>
				<g>
					<path fill="#EFC100" d="M759.4,1012.1c0,0.1,0,0.3,0,0.4c0,0.1,0,0.2,0,0.4c0,0.1,0,0.3-0.1,0.4c0,0.1,0,0.2-0.1,0.4
						c0,0.1-0.1,0.3-0.1,0.4c0,0.1-0.1,0.2-0.1,0.4c0,0.1-0.1,0.3-0.1,0.4c0,0.1-0.1,0.2-0.1,0.3c-0.1,0.1-0.1,0.3-0.2,0.4
						c-0.1,0.1-0.1,0.2-0.2,0.3c-0.1,0.1-0.1,0.3-0.2,0.4c-0.1,0.1-0.1,0.2-0.2,0.3c-0.1,0.2-0.2,0.3-0.3,0.5
						c-0.1,0.1-0.1,0.2-0.2,0.3c-0.1,0.2-0.2,0.3-0.4,0.5c-0.1,0.1-0.1,0.2-0.2,0.2c-0.2,0.3-0.5,0.5-0.7,0.8
						c-0.1,0.1-0.1,0.1-0.2,0.2c-0.2,0.2-0.4,0.4-0.6,0.6c-0.1,0.1-0.2,0.2-0.3,0.3c-0.1,0.1-0.3,0.2-0.4,0.3
						c-0.1,0.1-0.2,0.2-0.4,0.3c-0.1,0.1-0.3,0.2-0.4,0.3c-0.1,0.1-0.3,0.2-0.4,0.3c-0.1,0.1-0.3,0.2-0.5,0.3
						c-0.1,0.1-0.3,0.2-0.4,0.3c-0.2,0.1-0.3,0.2-0.5,0.3c-0.2,0.1-0.4,0.3-0.6,0.4c-0.6,0.3-1.2,0.7-1.8,1
						c-0.2,0.1-0.3,0.2-0.5,0.2c-0.6,0.3-1.1,0.5-1.7,0.7c-0.1,0-0.2,0.1-0.2,0.1c-0.6,0.2-1.3,0.5-1.9,0.7
						c-0.5,0.1-0.9,0.3-1.4,0.4c-0.4,0.1-0.7,0.2-1.1,0.3c-0.5,0.1-1,0.2-1.5,0.3c-0.4,0.1-0.7,0.2-1.1,0.2c-0.2,0-0.3,0-0.5,0.1
						c-0.6,0.1-1.2,0.2-1.9,0.3c-0.2,0-0.4,0-0.6,0.1c-0.4,0-0.7,0.1-1.1,0.1c-0.6,0.1-1.2,0.1-1.8,0.1c-0.4,0-0.8,0-1.2,0
						c-0.5,0-1,0-1.5,0c-0.4,0-0.8,0-1.2,0c-0.5,0-0.9,0-1.4-0.1c-0.4,0-0.8-0.1-1.3-0.1c-0.5,0-0.9-0.1-1.3-0.2
						c-0.4-0.1-0.8-0.1-1.2-0.2c-0.5-0.1-1-0.2-1.4-0.2c-0.4-0.1-0.8-0.1-1.1-0.2c-0.6-0.1-1.1-0.3-1.7-0.4
						c-0.4-0.1-0.7-0.2-1.1-0.3c-0.2-0.1-0.4-0.1-0.6-0.2c-0.6-0.2-1.1-0.4-1.6-0.6c-0.2-0.1-0.3-0.1-0.5-0.2
						c-0.5-0.2-1-0.4-1.4-0.6c-0.2-0.1-0.5-0.2-0.7-0.3c-0.7-0.3-1.3-0.7-2-1c-3.7-2.1-6.1-4.7-7.2-7.4c-0.5-1.2-0.8-2.5-0.8-3.8
						l0,7.6c0,4,2.7,8.1,8,11.2c0.6,0.4,1.3,0.7,2,1c0.2,0.1,0.5,0.2,0.7,0.3c0.4,0.2,0.8,0.4,1.2,0.5c0.1,0,0.1,0.1,0.2,0.1
						c0.2,0.1,0.3,0.1,0.5,0.2c0.5,0.2,1.1,0.4,1.6,0.6c0.2,0.1,0.4,0.1,0.6,0.2c0.1,0,0.3,0.1,0.4,0.1c0.2,0.1,0.5,0.1,0.7,0.2
						c0.6,0.1,1.1,0.3,1.7,0.4c0.2,0,0.3,0.1,0.4,0.1c0.2,0,0.5,0.1,0.7,0.1c0.5,0.1,1,0.2,1.4,0.2c0.2,0,0.4,0.1,0.6,0.1
						c0.2,0,0.4,0,0.6,0.1c0.4,0.1,0.9,0.1,1.3,0.2c0.2,0,0.4,0.1,0.6,0.1c0.2,0,0.4,0,0.6,0c0.5,0,0.9,0.1,1.4,0.1
						c0.2,0,0.5,0,0.7,0c0.2,0,0.4,0,0.6,0c0.5,0,1,0,1.5,0c0.2,0,0.5,0,0.7,0c0.1,0,0.3,0,0.4,0c0.6,0,1.2-0.1,1.8-0.1
						c0.2,0,0.5,0,0.7,0c0.1,0,0.2,0,0.4,0c0.2,0,0.4,0,0.5-0.1c0.6-0.1,1.3-0.2,1.9-0.3c0.2,0,0.3,0,0.5-0.1c0.1,0,0.1,0,0.2,0
						c0.3-0.1,0.6-0.1,0.9-0.2c0.5-0.1,1-0.2,1.5-0.3c0.4-0.1,0.7-0.2,1.1-0.3c0.5-0.1,0.9-0.3,1.4-0.4c0.1,0,0.2-0.1,0.3-0.1
						c0.6-0.2,1.1-0.4,1.6-0.6c0.1,0,0.2-0.1,0.2-0.1c0.6-0.2,1.2-0.5,1.7-0.7c0.2-0.1,0.3-0.2,0.5-0.2c0.6-0.3,1.2-0.6,1.8-1
						c0.1-0.1,0.2-0.1,0.3-0.2c0.1-0.1,0.2-0.1,0.3-0.2c0.2-0.1,0.3-0.2,0.5-0.3c0.1-0.1,0.3-0.2,0.4-0.3c0.2-0.1,0.3-0.2,0.5-0.3
						c0.1-0.1,0.3-0.2,0.4-0.3c0.1-0.1,0.3-0.2,0.4-0.3c0.1-0.1,0.3-0.2,0.4-0.3c0.1-0.1,0.3-0.2,0.4-0.3c0.1,0,0.1-0.1,0.2-0.1
						c0,0,0.1-0.1,0.1-0.1c0.2-0.2,0.4-0.4,0.6-0.6c0.1-0.1,0.1-0.1,0.2-0.2c0.2-0.3,0.5-0.5,0.7-0.8c0,0,0,0,0,0
						c0.1-0.1,0.1-0.1,0.1-0.2c0.1-0.2,0.3-0.3,0.4-0.5c0.1-0.1,0.1-0.2,0.2-0.3c0.1-0.2,0.2-0.3,0.3-0.5c0,0,0.1-0.1,0.1-0.1
						c0-0.1,0.1-0.1,0.1-0.2c0.1-0.1,0.1-0.3,0.2-0.4c0.1-0.1,0.1-0.2,0.2-0.3c0.1-0.1,0.1-0.3,0.2-0.4c0-0.1,0.1-0.1,0.1-0.2
						c0-0.1,0-0.1,0.1-0.2c0-0.1,0.1-0.3,0.1-0.4c0-0.1,0.1-0.2,0.1-0.4c0-0.1,0.1-0.3,0.1-0.4c0-0.1,0-0.1,0.1-0.2c0,0,0-0.1,0-0.1
						c0-0.1,0-0.3,0.1-0.4c0-0.1,0-0.2,0-0.4c0-0.1,0-0.3,0-0.4c0-0.1,0-0.2,0-0.2c0-0.1,0-0.2,0-0.2l0-7.6
						C759.4,1011.8,759.4,1011.9,759.4,1012.1z"/>
					<g>
						<path fill="#FDD400" d="M751.4,1000.5c10.6,6.1,10.6,16,0.1,22.2c-10.5,6.1-27.7,6.1-38.3,0c-10.6-6.1-10.7-16-0.1-22.2
							C723.7,994.3,740.8,994.3,751.4,1000.5z"/>
					</g>
					<g>
						<path fill="#EC8659" d="M741.2,1009.9c2.3,1.3,2.7,3.4,0.2,5.5l2.7,1.5l-2.6,1.5l-2.5-1.4c-1.8,1-4,1.7-5.5,1.9l-2.3-2.2
							c1.7-0.3,3.7-0.9,5.4-1.8c1.5-0.9,1.9-1.8,0.9-2.4c-1-0.6-2.5-0.5-5,0.3c-3.7,1.1-6.9,1.4-9.5,0c-2.3-1.3-2.5-3.3-0.3-5.2
							l-2.5-1.4l2.6-1.5l2.3,1.3c1.8-1,3.4-1.4,4.6-1.7l2.2,2.2c-1,0.2-2.8,0.6-4.6,1.7c-1.7,1-1.5,1.7-0.8,2.1
							c0.9,0.5,2.3,0.3,5.4-0.5C736.2,1008.5,738.8,1008.6,741.2,1009.9z"/>
					</g>
				</g>
			</g>
		</g>
		<g>
			<g>
				<polygon fill="#58BFBF" points="970.3,963.1 960.7,968.7 960.6,997.4 970.3,991.8 				"/>
				<polygon fill="#58BFBF" points="849,968.7 839.3,963.1 839.2,991.8 849,997.4 				"/>
				<path fill="#58BFBF" d="M877,1017c0-0.1,0-0.2,0-0.4c0-0.1,0-0.3,0.1-0.4c0-0.1,0-0.2,0.1-0.4c0-0.1,0.1-0.3,0.1-0.4
					c0-0.1,0.1-0.2,0.1-0.4c0-0.1,0.1-0.3,0.1-0.4c0-0.1,0.1-0.2,0.1-0.4c0.1-0.1,0.1-0.3,0.2-0.4c0.1-0.1,0.1-0.2,0.2-0.4
					c0.1-0.1,0.1-0.3,0.2-0.4c0.1-0.1,0.1-0.2,0.2-0.3c0.1-0.2,0.2-0.3,0.3-0.5c0.1-0.1,0.1-0.2,0.2-0.3c0.1-0.2,0.3-0.4,0.4-0.5
					c0.1-0.1,0.1-0.2,0.2-0.2c0.2-0.3,0.5-0.6,0.7-0.8c0.1-0.1,0.1-0.1,0.2-0.2c0.2-0.2,0.4-0.4,0.6-0.6c0.1-0.1,0.2-0.2,0.3-0.3
					c0.1-0.1,0.3-0.2,0.4-0.4c0.1-0.1,0.3-0.2,0.4-0.3c0.1-0.1,0.3-0.2,0.4-0.3c0.1-0.1,0.3-0.2,0.4-0.3c0.2-0.1,0.3-0.2,0.5-0.3
					c0.1-0.1,0.3-0.2,0.4-0.3c0.2-0.1,0.3-0.2,0.5-0.3c0.2-0.1,0.4-0.3,0.6-0.4c0.4-0.2,0.8-0.5,1.3-0.7c0.1-0.1,0.3-0.1,0.4-0.2
					c0.3-0.2,0.7-0.3,1-0.5c0.1-0.1,0.2-0.1,0.4-0.2c0.5-0.2,0.9-0.4,1.4-0.6c0.1,0,0.2-0.1,0.3-0.1c0.4-0.1,0.8-0.3,1.2-0.4
					c0.2-0.1,0.3-0.1,0.5-0.2c0.2-0.1,0.5-0.1,0.7-0.2c0.2-0.1,0.4-0.1,0.6-0.2c0.2-0.1,0.5-0.1,0.7-0.2c0.2-0.1,0.4-0.1,0.6-0.1
					c0.2-0.1,0.5-0.1,0.7-0.2c0.2,0,0.4-0.1,0.6-0.1c0.2-0.1,0.5-0.1,0.7-0.1c0.2,0,0.4-0.1,0.6-0.1c0.5-0.1,1.1-0.2,1.6-0.3
					c0.1,0,0.1,0,0.2,0c0.5-0.1,0.9-0.1,1.4-0.2c0.2,0,0.4,0,0.5-0.1c0.3,0,0.6-0.1,0.9-0.1c0.2,0,0.4,0,0.6,0c0.3,0,0.6,0,0.9,0
					c0.2,0,0.4,0,0.5,0c0.3,0,0.5,0,0.8,0c0.2,0,0.4,0,0.6,0c0.3,0,0.6,0,0.9,0c0.2,0,0.3,0,0.5,0c0.9,0,1.8,0.1,2.7,0.1
					c0,0,0,0,0.1,0c0.9,0.1,1.8,0.2,2.7,0.3c0.1,0,0.1,0,0.2,0c0.4,0.1,0.8,0.1,1.1,0.2c0.2,0,0.3,0.1,0.5,0.1
					c0.3,0.1,0.6,0.1,0.9,0.2c0.2,0,0.3,0.1,0.4,0.1c0.3,0.1,0.6,0.1,0.9,0.2c0.2,0,0.3,0.1,0.5,0.1c0.3,0.1,0.6,0.1,0.8,0.2
					c0.2,0,0.3,0.1,0.5,0.1c0.4,0.1,0.9,0.3,1.3,0.4c0.1,0,0.2,0,0.2,0.1c0.5,0.2,1,0.4,1.5,0.5c0.1,0,0.2,0.1,0.3,0.1
					c0.6,0.3,1.3,0.5,1.9,0.8c0.1,0,0.1,0.1,0.2,0.1c0.6,0.3,1.2,0.6,1.8,1c5.5,3.2,8.3,7.4,8.3,11.5l0.1-28.7
					c0-4.2-2.7-8.4-8.3-11.5c-0.6-0.3-1.2-0.7-1.8-1c-0.1,0-0.1-0.1-0.2-0.1c-0.6-0.3-1.2-0.6-1.9-0.8c-0.1,0-0.1,0-0.2-0.1
					c0,0-0.1,0-0.1-0.1c-0.5-0.2-1-0.4-1.5-0.5c-0.1,0-0.2,0-0.2-0.1c-0.4-0.1-0.9-0.3-1.3-0.4c-0.1,0-0.1,0-0.2-0.1
					c-0.1,0-0.2,0-0.3-0.1c-0.3-0.1-0.6-0.2-0.8-0.2c-0.2,0-0.3-0.1-0.5-0.1c-0.3-0.1-0.6-0.1-0.9-0.2c-0.1,0-0.2-0.1-0.4-0.1
					c0,0-0.1,0-0.1,0c-0.3-0.1-0.6-0.1-0.9-0.2c-0.2,0-0.3-0.1-0.5-0.1c-0.4-0.1-0.7-0.1-1.1-0.2c-0.1,0-0.1,0-0.2,0c0,0,0,0,0,0
					c-0.9-0.1-1.8-0.2-2.7-0.3c0,0,0,0,0,0c0,0,0,0,0,0c-0.9-0.1-1.8-0.1-2.7-0.1c0,0,0,0,0,0c-0.1,0-0.3,0-0.4,0
					c-0.3,0-0.6,0-0.9,0c-0.2,0-0.4,0-0.6,0c-0.3,0-0.5,0-0.8,0c-0.1,0-0.1,0-0.2,0c-0.1,0-0.3,0-0.4,0c-0.3,0-0.6,0-0.9,0
					c-0.2,0-0.4,0-0.6,0c-0.3,0-0.6,0-0.9,0.1c-0.1,0-0.2,0-0.3,0c-0.1,0-0.1,0-0.2,0c-0.5,0-0.9,0.1-1.4,0.2c-0.1,0-0.1,0-0.2,0
					c-0.5,0.1-1.1,0.2-1.6,0.3c0,0-0.1,0-0.1,0c-0.1,0-0.3,0.1-0.4,0.1c-0.2,0-0.5,0.1-0.7,0.1c-0.2,0-0.4,0.1-0.6,0.1
					c-0.2,0.1-0.5,0.1-0.7,0.2c-0.2,0-0.4,0.1-0.6,0.1c-0.2,0.1-0.5,0.1-0.7,0.2c-0.2,0.1-0.4,0.1-0.6,0.2c-0.2,0.1-0.5,0.1-0.7,0.2
					c-0.1,0-0.2,0.1-0.3,0.1c-0.1,0-0.1,0-0.2,0.1c-0.2,0.1-0.5,0.2-0.7,0.2l0.1-23.6l0-7.9l-0.1,28.7l0,2.8
					c-0.2,0.1-0.3,0.1-0.5,0.2c-0.1,0-0.2,0.1-0.3,0.1c-0.5,0.2-0.9,0.4-1.4,0.6c-0.1,0.1-0.2,0.1-0.4,0.2c-0.4,0.2-0.7,0.3-1,0.5
					c-0.1,0.1-0.3,0.1-0.4,0.2c-0.4,0.2-0.9,0.5-1.3,0.7c-0.1,0.1-0.2,0.1-0.3,0.2c-0.1,0.1-0.2,0.1-0.3,0.2
					c-0.2,0.1-0.3,0.2-0.5,0.3c-0.2,0.1-0.3,0.2-0.4,0.3c-0.2,0.1-0.3,0.2-0.5,0.3c-0.1,0.1-0.3,0.2-0.4,0.3
					c-0.1,0.1-0.3,0.2-0.4,0.3c-0.1,0.1-0.3,0.2-0.4,0.3c-0.1,0.1-0.3,0.2-0.4,0.4c-0.1,0-0.1,0.1-0.2,0.1c0,0-0.1,0.1-0.1,0.1
					c-0.2,0.2-0.4,0.4-0.6,0.6c-0.1,0.1-0.1,0.1-0.2,0.2c-0.3,0.3-0.5,0.6-0.7,0.8c0,0,0,0,0,0c-0.1,0.1-0.1,0.1-0.1,0.2
					c-0.1,0.2-0.3,0.4-0.4,0.5c-0.1,0.1-0.1,0.2-0.2,0.3c-0.1,0.2-0.2,0.3-0.3,0.5c0,0-0.1,0.1-0.1,0.1c0,0.1-0.1,0.1-0.1,0.2
					c-0.1,0.1-0.1,0.3-0.2,0.4c-0.1,0.1-0.1,0.2-0.2,0.4c-0.1,0.1-0.1,0.3-0.2,0.4c0,0.1-0.1,0.1-0.1,0.2c0,0.1,0,0.1-0.1,0.2
					c0,0.1-0.1,0.3-0.1,0.4c0,0.1-0.1,0.2-0.1,0.4c0,0.1-0.1,0.3-0.1,0.4c0,0.1,0,0.1-0.1,0.2c0,0,0,0.1,0,0.1c0,0.1,0,0.3-0.1,0.4
					c0,0.1,0,0.2,0,0.4c0,0.1,0,0.3,0,0.4c0,0.1,0,0.2,0,0.2c0,0.1,0,0.2,0,0.2l-0.1,28.7c0-0.2,0-0.3,0-0.5
					C876.9,1017.3,877,1017.2,877,1017z"/>
				<path fill="#58BFBF" d="M983.3,997.6l-13.7,0c-0.2,0.5-0.4,1-0.6,1.5c0,0.1-0.1,0.2-0.1,0.2c-0.2,0.5-0.4,0.9-0.7,1.4
					c0,0.1-0.1,0.2-0.1,0.3c-0.3,0.5-0.5,0.9-0.8,1.4c0,0,0,0,0,0.1c-0.3,0.5-0.6,0.9-0.9,1.3c-0.1,0.1-0.1,0.2-0.2,0.3
					c-0.3,0.4-0.6,0.9-1,1.3c-0.1,0.1-0.2,0.2-0.2,0.3c-0.3,0.4-0.6,0.7-0.9,1.1c-0.1,0.1-0.2,0.3-0.4,0.4c-0.3,0.4-0.7,0.7-1,1.1
					c-0.1,0.1-0.2,0.2-0.3,0.3c-0.5,0.5-0.9,0.9-1.4,1.4l0,11.3l-10.5,6.1l-9.7-5.6c-1,0.4-2.1,0.7-3.2,1.1c-0.3,0.1-0.7,0.2-1,0.3
					c-0.6,0.2-1.1,0.4-1.7,0.5c-0.4,0.1-0.7,0.2-1.1,0.3c-0.6,0.2-1.2,0.3-1.8,0.5c-0.4,0.1-0.7,0.2-1.1,0.3
					c-0.7,0.2-1.4,0.3-2.1,0.5c-0.3,0.1-0.5,0.1-0.8,0.2c-1,0.2-2,0.4-2.9,0.6c-0.6,0.1-1.2,0.2-1.8,0.3c-0.3,0-0.6,0.1-0.9,0.2
					c-0.9,0.1-1.8,0.3-2.7,0.4l0,7.9l-28.6,0l0-7.9c-0.7-0.1-1.4-0.2-2-0.3c-0.7-0.1-1.3-0.2-2-0.3c-0.4-0.1-0.7-0.1-1.1-0.2
					c-0.8-0.1-1.5-0.3-2.3-0.4c-0.2,0-0.5-0.1-0.7-0.1c-1.1-0.2-2.1-0.5-3.2-0.7c-0.3-0.1-0.6-0.1-0.8-0.2c-0.8-0.2-1.5-0.4-2.3-0.6
					c-0.3-0.1-0.7-0.2-1-0.3c-0.7-0.2-1.4-0.4-2.1-0.6c-0.3-0.1-0.6-0.2-0.9-0.3c-1-0.3-1.9-0.6-2.9-1l-9.6,5.6l-10.7-6.2l0-11.2
					c-3.2-2.9-5.6-5.9-7.4-9.1c-0.6-1.1-1.1-2.1-1.5-3.2h0l0,0l0,0l-13.7,0l-0.1-16.6l-0.1,28.7l0.1,16.6l13,0l-0.1,17.9l20.3,11.7
					l9.6-5.6c0.9,0.3,1.9,0.7,2.9,1c0.3,0.1,0.6,0.2,0.9,0.3c0.7,0.2,1.4,0.4,2,0.6c0.2,0,0.3,0.1,0.5,0.2c0.2,0,0.3,0.1,0.5,0.1
					c0.8,0.2,1.5,0.4,2.3,0.6c0.3,0.1,0.6,0.1,0.8,0.2c1,0.3,2.1,0.5,3.2,0.7c0,0,0.1,0,0.1,0c0.2,0,0.4,0.1,0.6,0.1
					c0.8,0.2,1.5,0.3,2.3,0.4c0.4,0.1,0.7,0.1,1.1,0.2c0.7,0.1,1.3,0.2,2,0.3c0.2,0,0.4,0.1,0.5,0.1c0.5,0.1,1,0.1,1.5,0.2l0,7.9
					l28.7,0l0-7.9c0.9-0.1,1.8-0.2,2.7-0.4c0.3,0,0.6-0.1,0.9-0.2c0.6-0.1,1.2-0.2,1.7-0.3c0,0,0,0,0.1,0c1-0.2,2-0.4,2.9-0.6
					c0.3-0.1,0.5-0.1,0.8-0.2c0.7-0.2,1.4-0.3,2.1-0.5c0.4-0.1,0.7-0.2,1.1-0.3c0.6-0.2,1.2-0.3,1.8-0.5c0.4-0.1,0.7-0.2,1.1-0.3
					c0.6-0.2,1.2-0.3,1.7-0.5c0.2-0.1,0.4-0.1,0.6-0.2c0.1,0,0.3-0.1,0.4-0.1c1.1-0.4,2.1-0.7,3.2-1.1l9.7,5.6l20.2-11.7l0.1-17.9
					l12.7,0L983.3,997.6z"/>
			</g>
			<path fill="#77D9DC" d="M969.6,997.6l13.7,0l-0.1-16.6l-13.7,0c-1.7-4.3-4.6-8.5-8.9-12.3l9.6-5.6L950,951.4l-9.6,5.6
				c-6.6-2.4-13.8-4.1-21.3-5.1l0-7.9l-28.7,0l0,7.9c-7.4,0.9-14.6,2.6-21.2,5.1l-9.7-5.6l-20.2,11.7l9.7,5.6
				c-4.2,3.8-7.1,8-8.7,12.3l-13.7,0l0.1,16.6l13.7,0c1.7,4.3,4.6,8.5,8.9,12.3l-9.6,5.6l20.3,11.7l9.6-5.6
				c6.6,2.4,13.8,4.1,21.3,5.1l0,7.9l28.7,0l0-7.9c7.4-0.9,14.6-2.6,21.2-5.1l9.7,5.6l20.2-11.7l-9.7-5.6
				C965.1,1006.1,968,1001.9,969.6,997.6z M924.8,1000.8c-10.9,6.3-28.6,6.3-39.6,0c-11-6.3-11-16.6-0.1-22.9
				c10.9-6.3,28.6-6.3,39.6,0C935.7,984.2,935.7,994.5,924.8,1000.8z"/>
		</g>
		<g>
			<polygon fill="#E8F9FF" points="691.9,773.3 692.4,920.1 881.2,811 880.8,664.3 			"/>
		</g>
		<polygon fill="#73D9FE" points="880.9,705 692.1,814.1 691.9,773.3 880.8,664.3 		"/>
		<g>
			<polygon fill="#DCDCDB" points="793.4,783.9 793.4,790.7 712.8,837.3 712.8,830.5 			"/>
		</g>
		<g>
			<polygon fill="#DCDCDB" points="793.4,799.3 793.4,806.2 712.8,852.7 712.8,845.9 			"/>
		</g>
		<g>
			<polygon fill="#DCDCDB" points="793.4,814.7 793.4,821.6 712.8,868.1 712.8,861.3 			"/>
		</g>
		<g>
			<polygon fill="#DCDCDB" points="793.4,830.2 793.4,837 712.8,883.5 712.8,876.7 			"/>
		</g>
		<g>
			<g>
				<polygon fill="#FA6B5C" points="829.2,778.5 829.4,815.1 822.7,818.9 822.5,782.3 				"/>
			</g>
			<g>
				<polygon fill="#FED22C" points="840.6,744.8 840.8,808.4 834.5,812.1 834.3,748.4 				"/>
			</g>
			<g>
				<polygon fill="#EFA6FF" points="854.6,746.4 854.8,800.4 847.4,804.6 847.2,750.7 				"/>
			</g>
			<g>
				<polygon fill="#4367C7" points="865.7,774.3 865.7,794 859,797.9 859,778.1 				"/>
			</g>
		</g>
		<g>
			<g enable-background="new    ">
				<g>
					<polygon fill="#F7F8F8" points="1054.1,316.3 1053.4,531.9 758.8,361.8 759.4,146.2 					"/>
				</g>
				<g>
					<polygon fill="#FEDB59" points="1054.1,316.3 1064.2,310.4 1063.6,526 1053.4,531.9 					"/>
				</g>
				<g>
					<polygon fill="#FEDB59" points="759.4,146.2 769.6,140.3 1064.2,310.4 1054.1,316.3 					"/>
				</g>
			</g>
		</g>
		<g>
			<g enable-background="new    ">
				<g>
					<polygon fill="#91B9FF" points="838.3,353.5 838.2,380 820.1,369.5 820.1,343.1 					"/>
				</g>
				<g>
					<polygon fill="#91B9FF" points="845.8,384.4 845.9,347.3 864,357.7 863.9,394.9 					"/>
				</g>
				<g>
					<polygon fill="#91B9FF" points="845.9,327.4 864.1,337.9 864,355.2 845.9,344.7 					"/>
				</g>
				<g>
					<polygon fill="#91B9FF" points="889.7,392.2 889.6,409.7 871.5,399.2 871.6,381.7 					"/>
				</g>
				<g>
					<polygon fill="#91B9FF" points="897.2,414.1 897.3,376.9 915.4,387.4 915.3,424.5 					"/>
				</g>
				<g>
					<polygon fill="#91B9FF" points="897.4,348 915.5,358.5 915.4,384.8 897.3,374.4 					"/>
				</g>
				<g>
					<polygon fill="#91B9FF" points="922.9,428.9 923,391.8 941.1,402.3 941,439.4 					"/>
				</g>
				<g>
					<polygon fill="#91B9FF" points="948.6,443.8 948.7,406.6 966.9,417.1 966.7,454.2 					"/>
				</g>
				<g>
					<polygon fill="#91B9FF" points="923,389.2 923.1,352.1 941.3,362.5 941.2,399.7 					"/>
				</g>
				<g>
					<polygon fill="#91B9FF" points="1018.8,484.3 1018.8,486.9 793.7,356.9 793.7,354.3 820.1,369.5 838.2,380 845.8,384.4 
						863.9,394.9 871.5,399.2 889.6,409.7 897.2,414.1 915.3,424.5 922.9,428.9 941,439.4 948.6,443.8 966.7,454.2 974.3,458.6 
						992.5,469.1 					"/>
				</g>
				<g>
					<polygon fill="#91B9FF" points="948.8,383.9 966.9,394.4 966.9,414.5 948.7,404 					"/>
				</g>
				<g>
					<polygon fill="#91B9FF" points="923.2,334.6 941.3,345.1 941.3,360 923.1,349.5 					"/>
				</g>
				<g>
					<polygon fill="#91B9FF" points="974.3,458.6 974.4,421.5 992.6,431.9 992.5,469.1 					"/>
				</g>
				<g>
					<polygon fill="#91B9FF" points="974.4,394 992.6,404.5 992.6,429.4 974.4,418.9 					"/>
				</g>
				<g>
					<polygon fill="#91B9FF" points="1018.9,444.6 1018.9,447.1 992.6,431.9 974.4,421.5 966.9,417.1 948.7,406.6 941.1,402.3 
						923,391.8 915.4,387.4 897.3,376.9 864,357.7 845.9,347.3 793.8,317.2 793.9,314.6 845.9,344.7 864,355.2 897.3,374.4 
						915.4,384.8 923,389.2 941.2,399.7 948.7,404 966.9,414.5 974.4,418.9 992.6,429.4 					"/>
				</g>
				<g>
					<polygon fill="#91B9FF" points="933.4,282.1 933.4,287.2 882.5,257.8 882.5,252.7 					"/>
				</g>
				<g>
					<polygon fill="#91B9FF" points="949,301.8 949,306.9 882.4,268.5 882.5,263.4 					"/>
				</g>
				<g>
					<polygon fill="#91B9FF" points="1019,404.8 1019,407.4 941.3,362.5 923.1,352.1 794,277.5 794,274.9 923.1,349.5 941.3,360 
											"/>
				</g>
				<g>
					<polygon fill="#91B9FF" points="1019.1,365.1 1019.1,367.7 794.1,237.8 794.1,235.2 					"/>
				</g>
			</g>
			<g>
				<polygon fill="#91B9FF" points="845.1,231.1 845.1,236.2 794.2,206.8 794.2,201.7 				"/>
			</g>
			<g>
				<polygon fill="#91B9FF" points="860.7,250.9 860.7,255.9 794.1,217.5 794.1,212.4 				"/>
			</g>
			<g>
				<polygon fill="#91B9FF" points="823.8,208.3 823.8,213.5 794.2,196.5 794.2,191.2 				"/>
			</g>
			<g>
				<polygon fill="#91B9FF" points="912.1,259.3 912.1,264.5 882.5,247.4 882.5,242.2 				"/>
			</g>
		</g>
		<g>
			<path fill="#F0C7AD" d="M645.5,325.3c0,0-12.9-8.6-24.2-20.7c0,0-7.6-0.5-12.3-3.9c-4.6-3.5-4.6-3.7-5.3-5.3
				c-0.7-1.6-1.9-5.8-1.9-5.8s-5.6-1.9-7.2-4.4c-1.6-2.5,3-2.3,6.5-0.9c3.5,1.4,11.6,5.6,11.6,5.6s9.3,3.7,12,5.6
				c2.8,1.9,26.4,14.8,26.4,14.8L645.5,325.3z"/>
			<path fill="#FEFBF0" d="M677.9,470.6c0,0-10.1-1-16.1-1.6c0,0-5-0.8-5.4,3.8c-0.3,4.7,2.6,8.1,10.7,12.2l10.7,4.7
				c0,0,4.1,2.8,7.8,2.8c3.8,0,6.6-1.3,6.9-4.1v-24.2L677.9,470.6z"/>
			<path fill="#FEFBF0" d="M698.2,456.4c0,0-10.1-1-16.1-1.6c0,0-5-0.8-5.4,3.8c-0.3,4.7,2.6,8.1,10.7,12.2l10.7,4.7
				c0,0,4.1,2.8,7.8,2.8s6.6-1.3,6.9-4.1v-24.2L698.2,456.4z"/>
			<path fill="#FEDB59" d="M667.2,355.1l-3.1-0.6c0,0-0.9,21.4,1.6,37.1c2.5,15.7,4.1,30.2,7.9,48.2c3.8,17.9,1.9,33,1.9,33
				s-0.3,6,6,7.9c6.3,1.9,11.3-4.1,11.3-4.1s-0.9-49.4-1.3-55.7c-0.3-6.3-3.5-17-3.5-17s4.4,8.8,6,18.3v39.7c0,0,0.6,5,8.5,6
				c7.9,0.9,10.5-6.3,10.5-6.3v-33.7c0,0-1.2-10.8-2.5-20.6c-1.1-8.2-1.1-16.6,0.1-24.8c1.6-11.2,3.5-27.2,2.4-36.4
				C711.3,345.6,667.2,355.1,667.2,355.1z"/>
			<path fill="#F0C7AD" d="M670.7,240.8v12c0,0-1.3,11,5.7,11v9.4h17.3v-10.4l-14.8-24.5l-8.3-2.2L670.7,240.8z"/>
			<path fill="#713D22" d="M670.7,240.8c0,0,0.9,0,2.2,1.9c1.3,1.9,2.2,5.7,2.2,5.7s1.9-0.3,2.8,2.5c0.9,2.8,0.9,2.8,0.9,2.8
				s5.4,1.6,6.9,5c1.6,3.5,4.1,4.7,7.9,4.1c0,0,3.8-0.6,6.3-6.6c2.5-6,4.1-14.8-1.6-21.4c-5.7-6.6-9.1-7.6-18.3-7.6
				C671,227.3,667.5,237.1,670.7,240.8z"/>
			<path fill="#4B4B4B" d="M682.1,270.7c0,0-7.4,1.9-17.7,10.7c-10.4,8.8-18.9,28.6-18.9,28.6s-4.1,7.9-1.9,12.6c0,0,2.5,4.7,6,4.7
				s10.8-8.2,12.9-11c2.2-2.8,3.7-4.7,3.7-4.7s0.6,9.4,0,15.7c-0.6,6.3-2.2,27.1-2.2,27.1s0.1,14.2,6.5,20.1c6.4,6,16.8,0.3,25-3.1
				c8.2-3.5,13.8-9.1,15.7-12.3c1.9-3.1,2.5-18.9,0-27.7c-2.5-8.8-4.4-19.5-2.5-29.3c1.9-9.8,6.3-21.4,1.9-31.5
				S694.1,264.5,682.1,270.7z"/>
		</g>
		<g>
			<polygon fill="#CBAF46" points="853.3,618.9 769.5,667.7 685.1,618.9 768.9,570.2 			"/>
		</g>
		<g>
			<polygon fill="#FEDB59" points="853.3,618.9 852.5,642.3 768.7,691.1 769.5,667.7 			"/>
		</g>
		<g>
			<polygon fill="#B89030" points="769.5,667.7 768.7,691.1 684.3,642.3 685.1,618.9 			"/>
		</g>
		<path fill="#E8F9FF" d="M774,610.3c3.6,2.1,9.3,2.1,12.9,0c3.5-2.1,3.5-5.4,0-7.5c-3.6-2.1-9.3-2.1-12.9,0
			C770.4,604.9,770.4,608.2,774,610.3z"/>
		<polygon fill="#E8F9FF" points="791.2,644.9 805.2,636.7 803.5,619.9 758.6,619.9 758.9,601.6 730.2,601.2 700.5,618.4 
			768.9,657.8 791.2,644.9 		"/>
	</g>
	<g>
		<polygon fill="#91B9FF" points="838.3,1124.1 771.8,1162.8 704.9,1124.1 771.4,1085.5 		"/>
	</g>
	<g>
		<polygon fill="#5678B5" points="838.3,1124.1 837.7,1143.4 771.2,1182.1 771.8,1162.8 		"/>
	</g>
	<g>
		<polygon fill="#668ED6" points="771.8,1162.8 771.2,1182.1 704.3,1143.4 704.9,1124.1 		"/>
	</g>
	<g>
		<polygon fill="#FEDB59" points="901.3,1108.7 834.9,1147.3 768,1108.7 834.4,1070.1 		"/>
	</g>
	<g>
		<polygon fill="#B89030" points="901.3,1108.7 900.7,1128 834.2,1166.6 834.9,1147.3 		"/>
	</g>
	<g>
		<polygon fill="#CBAF46" points="834.9,1147.3 834.2,1166.6 767.3,1128 768,1108.7 		"/>
	</g>
</g>
</svg>
