<svg xmlns="http://www.w3.org/2000/svg" width="962.948" height="791.708" viewBox="0 0 962.948 791.708">
    <g id="Group_8" data-name="Group 8" transform="translate(-58.526 -144.146)">
        <path id="Path_15" data-name="Path 15" d="M1019.29,593.641,964.947,486.283a20.332,20.332,0,0,0-18.283-11.3h0a20.333,20.333,0,0,0-18.285,11.3L879.3,584.434,856.03,491.342c-3.4-13.582-10.457-16.432-15.783-16.432-5.285,0-12.279,2.808-15.7,16.124l-17.11,55.813-17.109-55.815c-3.426-13.314-10.419-16.122-15.7-16.122h0c-5.326,0-12.387,2.852-15.782,16.433l-24.132,96.525a39.336,39.336,0,0,0-14.923-24.487,51.44,51.44,0,0,0,15.489-38.194c-.724-28.1-24.325-50.22-52.429-50.235l-71.83-.039a16.4,16.4,0,0,0-16.41,16.4v93.9l-49.466-98.931a20.443,20.443,0,0,0-36.579.019L455.143,593.649a20.227,20.227,0,0,0,9.1,27.121h0a2.558,2.558,0,0,0,3.431-1.151l59.186-118.942,26.224,54.669H514.788a2.29,2.29,0,0,0-2.29,2.29v1.415a19.082,19.082,0,0,0,19.082,19.082h32.434l16.7,33.672a17.093,17.093,0,0,0,15.29,9.45h18.03a3.357,3.357,0,0,0,3.357-3.357V497.7l66.325.036A28.842,28.842,0,0,1,712.5,526.063c.264,16.1-13.349,29.283-29.455,29.283H633.522a2.231,2.231,0,0,0-2.231,2.231v1.474a19.082,19.082,0,0,0,19.082,19.082H696a16.5,16.5,0,0,1,16.5,16.5v23.053a3.567,3.567,0,0,0,3.567,3.567h21.285a17.1,17.1,0,0,0,16.585-12.949l21.315-88.68L793.1,577.852a14.851,14.851,0,0,0,14.328,10.881h0a14.854,14.854,0,0,0,14.331-10.884l17.848-58.223,21.315,88.68a17.1,17.1,0,0,0,31.875,3.5l53.872-111.164,27.691,54.705H934.6a2.29,2.29,0,0,0-2.29,2.29v1.415a19.082,19.082,0,0,0,19.082,19.082H985.9l21.039,41.565a2.559,2.559,0,0,0,3.438,1.127h0A20.229,20.229,0,0,0,1019.29,593.641Z" fill="#112f6b"/>
        <path id="Path_16" data-name="Path 16" d="M447.085,935.854a8.357,8.357,0,0,1-2.028-.251c-4.109-1.027-7.319-3.32-9.9-5.162-.433-.309-.871-.622-1.3-.918a8.354,8.354,0,0,1-10.725-11.283,2.421,2.421,0,0,0,.1-.232,18.83,18.83,0,0,0-1.6-2.906,35.761,35.761,0,0,1-3.078-5.81,8.353,8.353,0,0,1,2.692-9.7,19.788,19.788,0,0,1-.377-2.095,19.716,19.716,0,0,1-1.54-1.362,8.365,8.365,0,0,1-1.565-2.171c-1.011-2.024-1.991-4.047-2.964-6.055-4.887-10.085-9.5-19.611-16.914-26.1a8.359,8.359,0,0,1-1.449-1.653c-3.226-4.84-4.85-9.681-6.295-15.46a8.338,8.338,0,0,1-.249-2.026v-3.8c-4.2-12.947-6.258-24.424-6.416-35.883a21.429,21.429,0,0,0-1.594-3.541c-18.243-1.64-37.493-1.534-56.126-1.427-8,.044-16.267.09-24.345,0a8.355,8.355,0,0,1,.192-16.708c7.934.093,16.132.048,24.059,0,19.434-.112,39.526-.222,58.938,1.607,9.942.375,13.847,12.093,15.145,15.985a8.353,8.353,0,0,1,.429,2.642c0,10.617,1.849,20.9,6,33.344a8.359,8.359,0,0,1,.429,2.642v4.095a30.451,30.451,0,0,0,3.218,8.445c9.387,8.612,14.789,19.76,20.017,30.551q1.05,2.169,2.122,4.356c1.912,1.572,5.488,4.846,5.488,10.388a9.992,9.992,0,0,0,.465,1.755,17.017,17.017,0,0,1,.392,11.169,8.339,8.339,0,0,1-.563,1.3,21.873,21.873,0,0,1,1.515,3.7,42.009,42.009,0,0,1,5.617,3.551q.375.269.752.535a26.306,26.306,0,0,1,8.029-2.717,17.971,17.971,0,0,0,3.834-1.062,8.308,8.308,0,0,1,.8-.35c9.051-3.395,17.821-2.769,25.56-2.215,2.648.188,5.16.367,7.607.394a8.358,8.358,0,0,1,8.676-3.69c3.41.685,8.532.344,11.733-2.857a40.471,40.471,0,0,1,7.583-5.734c.737-.469,1.525-.967,2.38-1.532a84.955,84.955,0,0,0,9.349-9.18c1.527-1.664,3.1-3.382,4.837-5.13,3.248-3.884,6.493-7.453,9.635-10.908,3.242-3.567,6.3-6.936,9.4-10.654a35.156,35.156,0,0,0,7.684-16.035,12.065,12.065,0,0,1-2.192-6.249c-.324-5.2,2.687-10.572,7.86-14.02a8.337,8.337,0,0,1,1.343-.728c3.14-1.345,6.164-2.369,9.088-3.358a64.152,64.152,0,0,0,10.686-4.312,40,40,0,0,1,1.247-10.2c.15-.7.3-1.38.431-2.058a8.331,8.331,0,0,1-.471-5.138,14.928,14.928,0,0,0-.673-3.625,34.154,34.154,0,0,1-1.165-6.255,14.22,14.22,0,0,1-3.58-8.739c-.293-5.674,2.855-11.553,8.42-15.726q.283-.213.585-.4c7.194-4.5,13.173-9.8,19.5-15.424,2.12-1.883,4.261-3.783,6.479-5.685.072-.061.145-.121.218-.179,4.564-3.653,9.409-4.974,13.3-6.035,2.854-.778,5.14-1.4,6.955-2.727,4.285-4.287,7.51-7.568,9.686-11.694a8.317,8.317,0,0,1-.913-3.11,116.974,116.974,0,0,1,.308-19.724c.524-7.075,1.019-13.76-.178-20.5-.27-.311-.631-.7-.923-1.015-2.232-2.409-5.6-6.049-6.285-11.757a8.355,8.355,0,0,1,16.592-1.975A14.12,14.12,0,0,0,661,667.458c1.946,2.1,4.823,5.2,5.176,9.772,1.492,8.671.9,16.629.333,24.329-.31,4.186-.608,8.2-.565,12.208a10.316,10.316,0,0,1,2.838,6.81,8.338,8.338,0,0,1-.322,2.3c-3.165,11.078-9.527,17.44-16.263,24.176a8.378,8.378,0,0,1-.688.615c-4.564,3.652-9.409,4.974-13.3,6.034-2.967.81-5.321,1.451-7.169,2.89-2.1,1.8-4.126,3.6-6.134,5.385-6.473,5.746-13.161,11.685-21.382,16.874a7.747,7.747,0,0,0-.831.769,8.358,8.358,0,0,1,2.866,8.534,14.11,14.11,0,0,0,.674,3.71c.237.924.5,1.954.724,3.072a8.346,8.346,0,0,1,1.6,5.1,53.094,53.094,0,0,1-1.454,10.3c-.769,3.594-1.211,5.873-.608,7.38a8.352,8.352,0,0,1-2.408,9.52c-6.474,5.4-13.3,7.705-19.9,9.938-1.721.583-3.382,1.145-5.008,1.752a8.271,8.271,0,0,1,.838,4.923c-1.126,7.881-3.522,18.252-12.134,28.586-3.328,3.994-6.657,7.655-9.875,11.2-3.243,3.567-6.3,6.935-9.4,10.653-.162.2-.332.38-.511.56-1.585,1.585-3.052,3.184-4.6,4.878a98.193,98.193,0,0,1-11.507,11.16c-.189.151-.384.293-.585.428-1.091.727-2.085,1.359-3.008,1.944a25.747,25.747,0,0,0-4.715,3.439,28.865,28.865,0,0,1-19.626,8.039,8.355,8.355,0,0,1-5.459,2.118c-.149.04-.447.14-.672.214a17.469,17.469,0,0,1-5.855,1.071c-3.235,0-6.373-.224-9.408-.44-6.771-.482-12.636-.9-18.177,1.074a32.41,32.41,0,0,1-7.418,2.243,27.306,27.306,0,0,0-2.75.667A8.359,8.359,0,0,1,447.085,935.854ZM381.357,798.7h0ZM650.02,680.262Z" fill="#091933"/>
        <path id="Path_17" data-name="Path 17" d="M692.295,846.971c-5.434,0-9.754-3.007-12.023-4.586-.417-.29-.826-.577-1.23-.838-8.061-5.213-11.276-15.643-8.165-26.185a4.742,4.742,0,0,0-.282-.7c-3.7-7.26-3.493-14.209.636-21.239a128.411,128.411,0,0,1,8.476-12.244c1.108-1.473,2.217-2.947,3.3-4.444.3-.414.236-1.7-.174-3.538a75.418,75.418,0,0,1-1.231-8.077c-.249-2.184-.485-4.248-.891-6.125-1.648-7.643,2.169-12.831,4.449-15.929.307-.417.617-.836.915-1.267a18.954,18.954,0,0,0,.49-1.908c.183-.815.39-1.739.681-2.7a8.357,8.357,0,0,1,5.657-5.6l16.981-4.954a20.66,20.66,0,0,1,3.609-2.716c.283-.175.659-.41.84-.539a8.335,8.335,0,0,1,3.064-2.024l.505-1.1a8.343,8.343,0,0,1,5.458-4.579c.131-.221.261-.436.386-.645l.122-.2a24.416,24.416,0,0,1,.243-2.856c.032-.248.066-.5.09-.747a8.354,8.354,0,0,1,9.786-7.406,5.612,5.612,0,0,0,.566-1.221c.369-5.927,3.092-10.071,8.562-13.037a8.358,8.358,0,0,1,11.3,3.322c.456.83,1.021,1.727,1.619,2.676a32.35,32.35,0,0,1,4.567,9.558,62.729,62.729,0,0,1,1.457,11.758c.094,1.634.185,3.176.335,4.66l.058.595a15.7,15.7,0,0,0,.3,2.172c2.89,6.991,1.336,13.839-4.635,20.315a8.322,8.322,0,0,1-2.009,1.6,18.372,18.372,0,0,1-4.051,7.541,16.592,16.592,0,0,0-.9,2.744c-.025.145-.057.738-.08,1.173a17.785,17.785,0,0,1-1.282,6.455c-3.938,9.058-8.033,18.2-11.992,27.046q-3.256,7.27-6.5,14.549c-.592,1.334-1.141,2.749-1.721,4.247-.7,1.794-1.413,3.649-2.275,5.537l-1.44,3.166c-2.582,5.7-5.252,11.586-8.4,17.282-2.358,4.266-6.746,5.775-9.65,6.774l-.8.277a27.335,27.335,0,0,1-4.663,1.132c-.582.1-1.36.237-1.713.344A15.8,15.8,0,0,1,692.295,846.971Zm8.266-2.456Zm-8.8-14.191Zm5.262-74.945c0,.015.01.049.02.095a78.254,78.254,0,0,1,1.158,7.749,61.933,61.933,0,0,0,.935,6.324c.566,2.529,2.29,10.225-2.587,16.976-1.146,1.585-2.319,3.144-3.492,4.7a114.246,114.246,0,0,0-7.418,10.657c-1.221,2.08-1.25,3.051-.156,5.2,1.043,2.049,3.28,7.372,1.553,12.582-1.113,3.359-.649,6.735,1.079,7.853.559.362,1.125.753,1.7,1.155a24.984,24.984,0,0,0,2.269,1.466,20.1,20.1,0,0,1,7.4-2.455,15.979,15.979,0,0,0,1.888-.4c.329-.118.67-.236,1.019-.355s.8-.276,1.2-.427c2.511-4.7,4.726-9.581,7.058-14.727l1.458-3.207c.658-1.441,1.258-2.991,1.894-4.632.627-1.617,1.275-3.29,2.03-4.992q3.243-7.3,6.517-14.6c3.892-8.693,7.916-17.677,11.773-26.541.026-.262.049-.691.067-1.022a21.732,21.732,0,0,1,.614-4.562,22.623,22.623,0,0,1,4.224-9.174,7.315,7.315,0,0,0,.554-.728c-.749-2.578-2.694-9.357,2.908-16.006a8.353,8.353,0,0,1,3.155-2.32q-.014-.127-.024-.252l-.052-.525c-.186-1.837-.29-3.632-.392-5.368-.023-.39-.045-.779-.068-1.164a17.67,17.67,0,0,1-4.352,3.221,8.35,8.35,0,0,1-2.791,4.91,8.2,8.2,0,0,1-1.321.928l-.092.177c-.651,1.259-1.257,2.539-1.866,3.82l-.867,1.815a43.22,43.22,0,0,1-11.845,8.505l-.181.005a8.372,8.372,0,0,1-12.248,4.009l-7.57,2.209a17.1,17.1,0,0,1-2.217,4.8c-.437.641-.892,1.263-1.345,1.878A16.3,16.3,0,0,0,697.023,755.379Zm17.168-31.851-.009.009Zm.005-.006,0,.005Zm20.35-20.825v0Z" fill="#091933"/>
        <path id="Path_18" data-name="Path 18" d="M246.471,713.77l-8.043,14.867h-9.589a2.975,2.975,0,0,0-2.975,2.975v4.5a2.975,2.975,0,0,0,2.975,2.975h3.937l-3.883,7.178h-8.065a2.975,2.975,0,0,0-2.975,2.975v4.5a2.975,2.975,0,0,0,2.975,2.975h2.413l-8.428,15.578c-2.467-.123-4.743-.189-6.783-.189-29.487,0-71.887,7.862-71.887,17.56s42.4,17.56,71.887,17.56c2.065,0,4.371-.068,6.874-.2l8.337,15.411h-2.413a2.975,2.975,0,0,0-2.975,2.976V829.9a2.976,2.976,0,0,0,2.975,2.976h8.065l3.883,7.177h-3.937a2.975,2.975,0,0,0-2.975,2.976v4.495a2.976,2.976,0,0,0,2.975,2.976h9.589l8.043,14.867a7.8,7.8,0,0,0,6.864,4.09h2.732a1.407,1.407,0,0,0,1.371-1.726l-4.2-18.088a2.973,2.973,0,0,0,2.48-2.931v-2.872a2.975,2.975,0,0,0-2.975-2.975H251.2l-2.058-8.857a2.975,2.975,0,0,0,2.407-2.92v-2.872a2.975,2.975,0,0,0-2.975-2.975H247.1l-4.394-18.911c16.107-2.05,33.642-4.91,47.522-7.62l15.613,24.031a3.9,3.9,0,0,0,3.432,2.045h1.366a.7.7,0,0,0,.686-.863L303,794.019c7.98-1.847,13-3.431,13-4.363,0-.99-5.033-2.6-13.024-4.462l8.344-27.98a.7.7,0,0,0-.686-.863h-1.366a3.9,3.9,0,0,0-3.432,2.045l-15.656,24.1c-13.882-2.7-31.41-5.533-47.51-7.556L247.1,755.9h1.469a2.976,2.976,0,0,0,2.975-2.976v-2.872a2.975,2.975,0,0,0-2.407-2.92l2.058-8.856h1.545a2.976,2.976,0,0,0,2.975-2.976v-2.872a2.974,2.974,0,0,0-2.48-2.931l4.2-18.087a1.407,1.407,0,0,0-1.371-1.727h-2.732A7.8,7.8,0,0,0,246.471,713.77Z" fill="#709be0"/>
        <path id="Path_19" data-name="Path 19" d="M363.06,743.281a8.324,8.324,0,0,1-5.407-1.989c-.694-.59-1.324-1.1-1.891-1.552-4.675-3.756-8.183-7.365-7.349-16.6a20.553,20.553,0,0,1,3.806-9.618,15.964,15.964,0,0,0,1.1-1.835,8.368,8.368,0,0,1,1.124-4.076,17.291,17.291,0,0,0,1.736-4.258c1.074-4.069,2.369-10.109,3.959-18.464,1.429-7.508,6.418-12.394,10.046-15.418,2.407-2.005,2.7-3.252,2.819-4.561.391-4.341-.135-7.009-1.877-9.518a41.038,41.038,0,0,1-4.754-10.283c-.424-1.214-.823-2.361-1.244-3.392a8.355,8.355,0,0,1,.508-7.353c.025-.054.084-.2.146-.338a14.771,14.771,0,0,1,1.618-2.914c-1.24-3.286-2.572-6.541-3.969-9.956l-.713-1.746a10.318,10.318,0,0,1-.675-.912q-1.643-2.507-3.248-5.014l-1.051-1.629a8.359,8.359,0,0,1-1.312-5.131,16.988,16.988,0,0,1-1.259-3.171,38.186,38.186,0,0,0-4.484-10.226,21.2,21.2,0,0,0-3.057-3.233,38.3,38.3,0,0,1-4.978-5.348,29.838,29.838,0,0,0-5.013-4.756c-4.347-3.577-9.756-8.029-11.818-16.03l-.075-.175a10.9,10.9,0,0,1-.8-2.693l-4.59-4.913a8.353,8.353,0,0,1,4.467-13.9,10.91,10.91,0,0,0,.131-1.81,8.356,8.356,0,0,1,1.186-10.227,8.36,8.36,0,0,1,.908-5.753c.4-.717.891-1.482,1.412-2.288a15.769,15.769,0,0,0,1.743-3.129,42.642,42.642,0,0,0,1.118-7.6c.04-.44.079-.878.121-1.316-.33-.726-.689-1.463-1.077-2.238-3.721-.779-5.965-3.073-7.556-6.069a10.334,10.334,0,0,1-1.872.33,50.673,50.673,0,0,1-5.23.091,30.941,30.941,0,0,0-3.944.08,40.256,40.256,0,0,0-4.311.873,52.982,52.982,0,0,1-6.373,1.229c-4.47.521-8.968-1.767-12.665-6.4a21.818,21.818,0,0,1-4.6-10.181,14.269,14.269,0,0,1-1.575-2.273c-2.272-4.092-3.613-3.923-5.166-3.724a11.724,11.724,0,0,1-4.914-.482c-.865.2-1.807.4-2.828.546-2.15.3-4.3.588-6.455.872-3.245.427-6.6.867-9.835,1.381-.119.071-.238.145-.358.217-.52.311-1.167.7-1.927,1.068-.362.176-.717.358-1.072.54a31.818,31.818,0,0,1-4.438,1.971c-1.328.447-2.572.736-3.671.991a18.52,18.52,0,0,0-2.387.651,27.128,27.128,0,0,0-2.56,1.32,29.85,29.85,0,0,1-6.787,3.009c-.857.233-1.718.44-2.576.645-2.608.623-4.254,1.048-5.214,1.908-3.3,2.958-7.816,2.882-10.938,1.821a66.2,66.2,0,0,1-7.41-3.047c-.53-.255-1.035-.521-1.518-.791a8.2,8.2,0,0,1-6.685-1.288c-1.01-.684-2.347-.556-6.117.222a38.2,38.2,0,0,1-7.3.989c-2.644.039-6.091,1.564-9.74,3.179-1.693.75-3.444,1.524-5.263,2.218-.509.194-1,.432-1.493.662-3.262,1.521-10.051,4.694-17.488-1.051a58.747,58.747,0,0,0-5.892-3.79,54.05,54.05,0,0,1-10.409-7.382c-4.445-4.294-9.237-8.763-14.641-12.04a12.129,12.129,0,0,1-2.156-1.7l.044.031c-.723-.6-1.441-1.223-2.158-1.85a36.767,36.767,0,0,0-3.813-3.061,39.13,39.13,0,0,0-4.486-2.31c-1.046-.491-2.162-1.015-3.364-1.612a8.353,8.353,0,0,1-4.414-9.391c.015-.065.031-.13.048-.194l-1.506-2.1a8.356,8.356,0,0,1-.578-8.827c-.01-.238-.012-.479-.006-.726.057-2.264-1.807-4.158-2.61-4.867a42.26,42.26,0,0,1-8.407-9.2,8.356,8.356,0,0,1-4.466-3.874l-.6-1.111c-.452-.827-.844-1.546-1.213-2.279-.5-.982-.976-1.981-1.457-2.981l-.373-.772a8.374,8.374,0,0,1-2.924-1.881c-.19-.085-.37-.172-.543-.262a10.2,10.2,0,0,1-4.364-4.361c-3.244-2.13-6.131-6.205-4.695-13.986.049-.267.112-.61.145-.832-.014-.164-.038-.331-.058-.5-.477-4.046.306-6.942,1.624-9.011-.136-.4-.266-.8-.4-1.2s-.3-.919-.45-1.339a8.356,8.356,0,0,1-5.453-7.835v-.753a8.355,8.355,0,0,1,7.135-8.265c.473-.069,1.352-.2,2.078-2.7,2.653-9.139,5.017-18.61,7.3-27.768q.717-2.875,1.438-5.749c-1.613-3.288-1.918-7.72,2.079-13.093l.245-.332a1.309,1.309,0,0,0,.079-.192,8.352,8.352,0,0,1-6.461-11.142l1.271-3.448c1.127-3.062,2.192-5.955,3.31-8.824,1.368-3.515,3.53-5.834,6.426-6.892a13.663,13.663,0,0,0,1.518-2.871c.4-.888.8-1.772,1.239-2.623a46.155,46.155,0,0,1,15.339-17.36,11.645,11.645,0,0,0,.869-1.682l.352-.756c.327-.694.653-1.417.983-2.15,2.236-4.96,5.019-11.133,10.63-14.505,4.145-2.491,6.428-4.729,8.14-7.982,1.121-2.129,5.309-9.1,12.187-9.584,6.48-.452,10.337-1.948,13.313-5.163a9.442,9.442,0,0,1,4.241-2.6c2.82-.9,4.865-3.271,7.971-7.067q.412-.506.824-1.006c0-.069.007-.135.01-.2.015-.28.029-.554.047-.821-.016-.161-.042-.321-.063-.483a14.747,14.747,0,0,1,.07-5.358l.186-.863c.727-3.421,1.865-8.769,6.372-12.684a21.056,21.056,0,0,1,12.16-13.594,77.671,77.671,0,0,0,22.741-15.571,11.512,11.512,0,0,0,2.434-2.805c1.373-3.183,5.758-10.423,16.72-8.911,5.651.779,11.346,1.669,16.852,2.53l5.551.864c2.7.417,5.4.844,8.441,1.33l2.222.353a17.052,17.052,0,0,1,8.327-1.974c5.677-5.838,13.106-6.106,16.947-6.246,3.778-.137,7.537-.452,11.517-.787,2.337-.2,4.675-.393,7.014-.552l.946-.064c3.448-.238,7-.482,10.682-.454,1.848.015,3.608.195,5.159.356a28.262,28.262,0,0,0,4.415.242c.2-.055.59-.188.884-.287,1.958-.669,6.034-2.06,10.495-.28,2.22.094,4.51.193,6.825.37a10.77,10.77,0,0,1,1.36.2c2.542-.777,5.1-1.606,7.6-2.414l3.2-1.036a8.344,8.344,0,0,1,2.552-.4h3.008a8.355,8.355,0,0,1,6.2,2.759l.681.754a8.354,8.354,0,0,1,8.847,1.624l1.128,1.051a8.352,8.352,0,0,1,1.507,10.357c-.22.374-.425.76-.631,1.146a28.5,28.5,0,0,1-2.257,3.7c3.158,4.514,3.128,10.161-.329,15.263-.369.545-.745,1.071-1.122,1.583,1.251,2.155,2.535,4.335,3.85,6.416.14.114.411.312.931.654,2.666,1.741,3.464,1.423,4.049,1.192a11.907,11.907,0,0,1,7.75-.22l1.991.607c4.8,1.464,9.771,2.978,14.67,4.74,5.063,1.821,6.96,7.024,7.421,8.575.394,1.332.678,2.194.882,2.75,1.013.168,2.453.317,3.037.379,9.844,1.025,17.207,4.008,23.162,9.382a1.9,1.9,0,0,0,.948-.2c-3.237-9.617-.616-16.123,8.519-21.5a44.846,44.846,0,0,1,9.715-3.929l1.265-.4c6.272-1.989,11.7.09,15.3,1.467.7.266,1.39.535,2.086.765a9.636,9.636,0,0,1,5.568,4.891q1.058.154,2.114.3c2.522.357,5.129.726,7.791,1.279a15.2,15.2,0,0,1,7.983,4.433,33.871,33.871,0,0,1,8.912.192c3.369.563,6.544,1.407,9.616,2.224,1.332.355,2.666.711,4.005,1.037.419.1,1.054.2,1.727.292a19.591,19.591,0,0,1,7.945,2.506c.6-.376,1.44-.982,2.1-1.463,2.584-1.871,6.816-4.953,12.859-4.795a38.171,38.171,0,0,0,5.98-.563c1.18-.168,2.37-.336,3.572-.469a8.359,8.359,0,0,1,7.881,3.679,11.087,11.087,0,0,1,3.595,1c4.51,2.116,6,6.4,6.638,8.231,1.813,5.206,3.56,10.429,5.191,15.519l.722,2.262c2.634,8.261,5.123,16.063,8.836,23.2a154.057,154.057,0,0,0,8.2,13.407c1.179,1.791,2.357,3.584,3.508,5.389a53.475,53.475,0,0,0,3.356,4.633l.22.268a12.167,12.167,0,0,1,3.1,9.267,20.466,20.466,0,0,0,.924,2.669c.261.666.52,1.331.755,1.989.416.288,1.251.729,1.834,1.037a24.688,24.688,0,0,1,5.767,3.869c.219.207.438.4.652.6,1.73,1.557,4.841,4.354,5.43,9.35,4.445,6.97,4.841,14.642,5.163,20.874l.037.715c.175,3.322,1.634,4.778,6.1,8.416.871.709,1.748,1.425,2.607,2.169.193.167.641.478,1.037.754.58.4,1.26.876,1.964,1.448H755.241a8.354,8.354,0,0,1,0,16.707H635.352a8.352,8.352,0,0,1-7.057-3.884c-.232-.171-.548-.39-.784-.555a28.085,28.085,0,0,1-2.432-1.839c-.732-.632-1.479-1.238-2.221-1.843-4.921-4.005-11.661-9.493-12.241-20.495l-.038-.73c-.263-5.107-.512-9.931-2.894-13.24a12,12,0,0,1-2.068-5.318c-.04-.037-.08-.072-.118-.106-.316-.283-.64-.577-.967-.886a14.5,14.5,0,0,0-2.086-1.229c-2.862-1.513-7.653-4.045-9.7-10.017-.19-.556-.413-1.118-.635-1.683a24.212,24.212,0,0,1-2.079-8.3,69.011,69.011,0,0,1-4.056-5.659c-1.106-1.737-2.24-3.459-3.374-5.183a169.5,169.5,0,0,1-9.068-14.883c-4.373-8.411-7.2-17.27-9.93-25.836l-.715-2.24c-1.331-4.154-2.741-8.4-4.2-12.648a11.3,11.3,0,0,1-6.57-2.658q-.454-.384-.864-.8a39.622,39.622,0,0,1-5.71.318h-.006a10.791,10.791,0,0,0-2.6,1.585c-3.971,2.883-11.249,8.158-20.572,2.292-.392-.1-1.187-.214-1.735-.294-.978-.142-2.086-.3-3.273-.591-1.456-.355-2.9-.741-4.352-1.125-2.818-.75-5.48-1.459-8.07-1.891a21.471,21.471,0,0,0-6.056.128c-6.426.836-10.144-1.947-12.273-5.031-1.9-.365-3.872-.644-5.946-.937-1.754-.249-3.567-.5-5.406-.826a11.988,11.988,0,0,1-7.3-4.718,12.115,12.115,0,0,1-.9-1.437c-1.619-.619-3.389-1.274-4.054-1.063l-1.355.425a31.56,31.56,0,0,0-6.207,2.375c-.65.383-1.12.689-1.454.925.138.452.359,1.088.713,1.973a12.949,12.949,0,0,1,.586,7.447,17.654,17.654,0,0,1-12.05,12.784,17.074,17.074,0,0,1-16.88-3.379c-3.249-2.953-7.49-4.561-13.751-5.213-10.859-1.133-14.621-3.851-17.732-13.465-3.707-1.265-7.473-2.413-11.417-3.615l-.62-.188c-5.671,1.613-11.529.477-17.444-3.391a18.248,18.248,0,0,1-5.7-5.377c-1.892-2.975-3.632-5.981-5.316-8.889q-.937-1.622-1.871-3.219a8.354,8.354,0,0,1,.566-9.3c.483-.631.966-1.247,1.446-1.857.408-.52.807-1.027,1.187-1.523a11.545,11.545,0,0,1-2.263-5.84,12.987,12.987,0,0,1,.391-4.556l-1.363-1.512-.359.115c-3.272,1.059-6.655,2.155-10.063,3.159a9.991,9.991,0,0,1-6.1-.233c-1.584-.108-3.188-.182-4.856-.254a8.6,8.6,0,0,1-5.141-.582,18.931,18.931,0,0,1-4.5,1.059,39.731,39.731,0,0,1-7.768-.251c-1.3-.134-2.527-.26-3.587-.268-3.039-.024-6.119.188-9.4.414l-.958.066c-2.253.153-4.5.343-6.751.531-4,.337-8.137.684-12.312.836-5,.181-5.486.938-6.052,1.814a10.829,10.829,0,0,1-11.05,4.544c-.8-.185-1.1-.256-2.409,1.046a21.528,21.528,0,0,1-7.007,4.355c-.559.246-1.12.485-1.647.762a8.358,8.358,0,0,1-11.254-3.46l-.489-.92a8.375,8.375,0,0,1-.757-2.035l-4.007-.624c-5.3-.828-10.786-1.685-16.164-2.432a27.807,27.807,0,0,1-5.7,7.165,94.008,94.008,0,0,1-27.6,18.819,4.342,4.342,0,0,0-2.943,3.447c-.265,1.364-1.036,5.322-4.892,7.418a13.46,13.46,0,0,0-1.062,3.587l-.068.315c.011.075.022.149.032.224a17.223,17.223,0,0,1,.179,3.688c-.016.218-.027.444-.039.675-.111,2.182-.3,5.831-2.9,8.891-.569.668-1.127,1.351-1.687,2.035-3.383,4.137-7.538,9.215-14.286,11.862-6.778,6.452-14.844,8.266-21.022,8.887a7.2,7.2,0,0,0-.552.869c-3.15,5.983-7.566,10.461-14.317,14.519-1.156.73-3.009,4.842-4,7.05-.372.824-.738,1.635-1.106,2.416l-.3.642a18.671,18.671,0,0,1-6.694,8.519,29.642,29.642,0,0,0-9.827,11.164c-.3.584-.571,1.2-.846,1.807-1.308,2.913-3.362,7.488-8.145,10.354q-.6,1.576-1.207,3.2A25.608,25.608,0,0,1,93.22,309.3c3.991,5.431,2.99,13.809-.249,19.071a13.76,13.76,0,0,1,.068,7.242q-.9,3.564-1.786,7.131c-2.324,9.309-4.728,18.934-7.468,28.376a22.318,22.318,0,0,1-4.416,8.4c.414,1.014.715,1.944.957,2.694.109.336.217.671.331,1a34.6,34.6,0,0,1,1.238,5.055c.107.564.215,1.144.345,1.74a8.344,8.344,0,0,1-2.27,7.7,13.436,13.436,0,0,1-.033,1.5c-.027.354-.066.7-.111,1.025q.308.248.593.519a8.383,8.383,0,0,1,2.778.75,8.361,8.361,0,0,1,8.153,4,8.358,8.358,0,0,1,4.609,10.567,8.348,8.348,0,0,1,.7,2.2c.566,3.256,2.338,5.093,6.551,8.809a23.469,23.469,0,0,1,8.248,16.477c.258.549.515,1.119.739,1.715a8.326,8.326,0,0,1,.444,4.184l2.8,3.9a8.309,8.309,0,0,1,.624,1.013c.705.387,1.4.8,2.105,1.254a50.508,50.508,0,0,1,5.7,4.487c.607.53,1.213,1.061,1.832,1.573.221.183.434.374.642.568,6.636,4.113,12.064,9.16,17.06,13.987a40.336,40.336,0,0,0,7.3,5.016,77.929,77.929,0,0,1,6.966,4.47c.28-.125.582-.266.841-.386.763-.357,1.627-.761,2.61-1.135,1.41-.538,2.887-1.192,4.452-1.884,4.786-2.119,10.21-4.52,16.261-4.606a25.584,25.584,0,0,0,4.172-.649c3.682-.758,8.829-1.815,14.244.009a8.368,8.368,0,0,1,6.741.806c.517.307,1.03.627,1.544.948a27.657,27.657,0,0,0,2.4,1.4c1.1.525,2.18,1.005,3.245,1.432a31.865,31.865,0,0,1,9.192-3.31c.692-.166,1.388-.33,2.079-.518a17.725,17.725,0,0,0,3.033-1.48,39.936,39.936,0,0,1,4.348-2.182,30.685,30.685,0,0,1,4.954-1.469c.8-.186,1.553-.36,2.11-.549a18.871,18.871,0,0,0,2.159-1.01c.459-.235.917-.468,1.379-.693.223-.109.44-.251.662-.384a15.514,15.514,0,0,1,5.622-2.267c3.681-.6,7.384-1.084,10.966-1.556,2.094-.275,4.188-.55,6.278-.848.661-.1,1.469-.292,2.324-.5.507-.124,1-.246,1.49-.353a8.317,8.317,0,0,1,4.051.107c.59.163,1.115.353,1.537.512,6.244-.428,14.366,1.556,20.312,12.047.158.159.428.411.637.606.465.432.924.865,1.35,1.31a8.355,8.355,0,0,1,2.131,7.529,8.835,8.835,0,0,0,.551.83c.712-.151,1.456-.327,2.22-.509a53.92,53.92,0,0,1,6.2-1.21,44.552,44.552,0,0,1,6.236-.2l.711.013a8.353,8.353,0,0,1,12.361-.762l.08.078a8.354,8.354,0,0,1,7.215,5.865c.076.246.147.475.215.687a8.354,8.354,0,0,1,6.428,4.533c.4.789.782,1.536,1.15,2.253.92,1.788,1.788,3.476,2.594,5.28a14.553,14.553,0,0,1,1.379,7.425c-.068.678-.13,1.358-.191,2.04a56.459,56.459,0,0,1-1.7,10.721,24.319,24.319,0,0,1-2.708,5.9l.831,2.349a8.355,8.355,0,0,1-1.657,8.368,9.253,9.253,0,0,1-.593,2.381,9.047,9.047,0,0,1-.689,1.383,18.83,18.83,0,0,1-2.484,7.53L340.246,553a8.356,8.356,0,0,1,2.2,6.606,8.229,8.229,0,0,1-.176,1.026c.868,2.173,2.829,3.866,5.982,6.462a43.224,43.224,0,0,1,7.887,7.8,25.127,25.127,0,0,0,2.913,3.014,33.9,33.9,0,0,1,5.67,6.363,55.1,55.1,0,0,1,6.527,14.755,8.259,8.259,0,0,0,.587.9,10.978,10.978,0,0,1,2.354,6.614q.738,1.141,1.481,2.281a9.919,9.919,0,0,1,2.03,3.1l1.188,2.91c1.624,3.969,3.3,8.072,4.827,12.238l.155.411c2.384,6.2.706,10.222-1.535,12.686a25.389,25.389,0,0,0,2.51,5.7c5.27,7.594,5.258,15.362,4.791,20.544-.562,6.253-3.429,11.454-8.763,15.9-2.7,2.249-3.995,3.956-4.329,5.705-1.663,8.741-3.043,15.154-4.219,19.606a34.415,34.415,0,0,1-2.493,6.628,20.864,20.864,0,0,1-3.607,8.381,12.238,12.238,0,0,0-1.177,2.034c-.04.447-.057.786-.062,1.038.357.3.83.684,1.241,1.014.674.543,1.422,1.145,2.247,1.845a8.355,8.355,0,0,1-5.416,14.719Zm15.1-100.1c-.018.009-.036.018-.054.025ZM325.518,542.161ZM204.875,479.379l.019.013Zm70.1-14.078-.015,0Zm-163.5-20.415v0ZM627.79,355.578l.005.01ZM78.374,335.8l.011.014Zm528.353-45.839v0ZM157.215,237.705h0ZM522.5,224.582Zm9.031-14.032h0Zm-354.1-.182-.01.045Zm.093-.963Zm207.227-3.236-.014,0ZM373.48,188.7Zm-39.118-39.438.068.053Zm2.959-.659-.019.005Z" fill="#091933"/>
        <path id="Path_20" data-name="Path 20" d="M808.941,428.106l8.043-14.867h9.589a2.975,2.975,0,0,0,2.975-2.975v-4.5a2.975,2.975,0,0,0-2.975-2.975h-3.937l3.883-7.178h8.065a2.975,2.975,0,0,0,2.975-2.975v-4.5a2.975,2.975,0,0,0-2.975-2.975h-2.413l8.428-15.578c2.467.123,4.743.189,6.783.189,29.487,0,71.887-7.862,71.887-17.56s-42.4-17.56-71.887-17.56c-2.065,0-4.371.068-6.874.2l-8.337-15.411h2.413a2.975,2.975,0,0,0,2.975-2.975v-4.5A2.976,2.976,0,0,0,834.584,309h-8.065l-3.883-7.177h3.937a2.975,2.975,0,0,0,2.975-2.975v-4.5a2.976,2.976,0,0,0-2.975-2.976h-9.589l-8.043-14.867a7.8,7.8,0,0,0-6.864-4.09h-2.733a1.408,1.408,0,0,0-1.371,1.726l4.2,18.088a2.973,2.973,0,0,0-2.48,2.931v2.872a2.975,2.975,0,0,0,2.975,2.975h1.545l2.058,8.857a2.975,2.975,0,0,0-2.407,2.92v2.872a2.975,2.975,0,0,0,2.975,2.975h1.469l4.394,18.911c-16.107,2.05-33.642,4.91-47.522,7.62L749.57,321.133a3.9,3.9,0,0,0-3.432-2.045h-1.366a.7.7,0,0,0-.686.863l8.322,27.906c-7.98,1.847-13,3.431-13,4.363,0,.99,5.033,2.6,13.024,4.463l-8.344,27.979a.7.7,0,0,0,.686.863h1.366a3.9,3.9,0,0,0,3.432-2.045l15.656-24.1c13.882,2.7,31.41,5.533,47.51,7.556l-4.425,19.042h-1.469a2.975,2.975,0,0,0-2.975,2.975v2.872a2.975,2.975,0,0,0,2.407,2.92l-2.058,8.857h-1.545a2.975,2.975,0,0,0-2.975,2.975v2.872a2.974,2.974,0,0,0,2.48,2.931l-4.2,18.087a1.408,1.408,0,0,0,1.371,1.727h2.733A7.8,7.8,0,0,0,808.941,428.106Z" fill="#709be0"/>
    </g>
</svg>
